<svg width="83" height="79" viewBox="0 0 83 79" fill="none" xmlns="http://www.w3.org/2000/svg">
<path d="M15.0662 38.9337C14.0795 40.3133 12.7217 41.3576 11.1643 41.9346C9.60695 42.5115 7.92006 42.5953 6.31694 42.1753C4.71381 41.7552 3.26645 40.8502 2.15787 39.5747C1.04928 38.2992 0.329265 36.7105 0.0888592 35.0094C-0.151547 33.3083 0.0984557 31.5713 0.807254 30.018C1.51605 28.4647 2.65181 27.1648 4.07092 26.2828C5.49003 25.4008 7.12876 24.9762 8.77988 25.0628C10.431 25.1493 12.0204 25.7431 13.347 26.7691L13.3638 26.7826C15.1387 28.1593 16.3152 30.2129 16.6344 32.4915C16.9537 34.7702 16.3896 37.0875 15.0662 38.9337Z" fill="#EBEBEB"/>
<path d="M13.4739 37.6946C12.7229 38.7465 11.6888 39.5431 10.5024 39.9838C9.316 40.4245 8.0306 40.4894 6.80875 40.1703C5.58689 39.8512 4.48346 39.1625 3.63799 38.1912C2.79252 37.2199 2.24298 36.0096 2.05887 34.7135C1.87476 33.4174 2.06435 32.0936 2.60366 30.9096C3.14297 29.7255 4.00777 28.7344 5.08872 28.0615C6.16967 27.3886 7.4182 27.0642 8.67643 27.1293C9.93466 27.1944 11.1461 27.646 12.1575 28.4271H12.1687C13.5221 29.4748 14.42 31.0388 14.6648 32.7749C14.9095 34.511 14.4812 36.2772 13.4739 37.6849V37.6946Z" fill="#F5F5F5"/>
<path d="M13.5912 37.5281C13.5595 37.5048 13.705 37.2566 13.9157 36.7854C14.2121 36.1268 14.4077 35.4241 14.4956 34.7027C14.6256 33.6391 14.5034 32.5585 14.1394 31.5553C13.9238 30.9703 13.6308 30.4194 13.2686 29.9187C13.0764 29.6548 12.8644 29.4071 12.6347 29.1779C12.1622 28.704 11.6203 28.3112 11.0292 28.0143C10.4652 27.7285 9.86303 27.5324 9.24293 27.4326C8.95105 27.3858 8.65628 27.3612 8.36097 27.3589C7.81326 27.3515 7.26688 27.4166 6.73502 27.5528C6.27167 27.6776 5.82277 27.8545 5.39622 28.0803C4.77613 28.4142 4.20994 28.8467 3.71806 29.3621C3.36565 29.7286 3.19037 29.9574 3.15867 29.9439C3.12698 29.9303 3.2575 29.6588 3.57635 29.2399C4.03714 28.6522 4.59931 28.1589 5.234 27.7855C5.99274 27.3352 6.83148 27.0497 7.69941 26.9464C8.56735 26.8431 9.44642 26.924 10.2834 27.1844C10.6128 27.2871 10.9339 27.4168 11.2437 27.5722C11.5621 27.733 11.8682 27.9191 12.1592 28.1288C12.448 28.3419 12.721 28.5772 12.9759 28.8327C13.2222 29.0826 13.4491 29.3524 13.6546 29.6394C14.1744 30.3668 14.5473 31.196 14.7511 32.0771C14.9549 32.9582 14.9853 33.873 14.8405 34.7667C14.7209 35.5165 14.468 36.2366 14.0947 36.8901C13.815 37.3342 13.6155 37.5456 13.5912 37.5281Z" fill="#E0E0E0"/>
<path d="M6.67364 37.3436L6.02289 38.2763L5.2211 37.6752L5.85507 36.7676C5.09617 36.118 4.51441 35.2861 4.32422 34.5938L5.47469 33.9092C5.70168 34.5908 6.09565 35.1991 6.61771 35.6739L7.58917 34.2816C6.85451 33.3857 6.0751 32.3269 6.90672 31.1342C7.52391 30.25 8.67066 29.9571 10.043 30.7619L10.6882 29.8369L11.49 30.4419L10.856 31.3495C11.4076 31.818 11.8441 32.4162 12.1295 33.0948L11.0108 33.8181C10.7902 33.3054 10.4732 32.8439 10.0784 32.4607L9.0902 33.8782C9.83604 34.7664 10.5931 35.8174 9.77265 36.9809C9.17783 37.8439 8.04414 38.1348 6.67364 37.3436ZM8.44317 33.0521L9.2692 31.8673C8.77507 31.6462 8.43758 31.7625 8.24552 32.0379C8.05347 32.3133 8.17094 32.6682 8.44317 33.0521ZM8.4208 36.1025C8.62404 35.8097 8.50284 35.4761 8.24552 35.0902L7.44187 36.2421C7.90803 36.4535 8.23433 36.3682 8.4208 36.1025Z" fill="#E0E0E0"/>
<path d="M65.26 63.626C64.4038 64.8231 63.2256 65.7293 61.8742 66.2301C60.5229 66.7308 59.0591 66.8035 57.668 66.439C56.2769 66.0746 55.021 65.2893 54.059 64.1825C53.097 63.0757 52.4722 61.6971 52.2636 60.221C52.055 58.7449 52.272 57.2377 52.887 55.8898C53.5021 54.5419 54.4877 53.414 55.7191 52.6487C56.9505 51.8834 58.3725 51.515 59.8053 51.5901C61.238 51.6653 62.6171 52.1806 63.7683 53.0709L63.7832 53.0825C65.323 54.2773 66.3436 56.0591 66.6205 58.0363C66.8975 60.0134 66.4081 62.024 65.26 63.626Z" fill="#EBEBEB"/>
<path d="M63.8782 62.5514C63.2253 63.463 62.3271 64.1529 61.2972 64.5337C60.2673 64.9144 59.152 64.9691 58.0923 64.6906C57.0325 64.4122 56.076 63.8132 55.3435 62.9694C54.6111 62.1256 54.1357 61.0749 53.9774 59.9502C53.8192 58.8254 53.9852 57.6771 54.4544 56.6504C54.9236 55.6237 55.6751 54.7648 56.6136 54.1822C57.5522 53.5997 58.6359 53.3197 59.7275 53.3776C60.8191 53.4355 61.8697 53.8287 62.7464 54.5076H62.7557C63.3379 54.9586 63.8287 55.5247 64.2003 56.1733C64.5718 56.8218 64.8167 57.5403 64.921 58.2874C65.0253 59.0345 64.9868 59.7957 64.8079 60.5274C64.629 61.2591 64.3131 61.9468 63.8782 62.5514Z" fill="#F5F5F5"/>
<path d="M63.9808 62.406C63.9528 62.3847 64.0796 62.1694 64.2605 61.7602C64.5177 61.1887 64.6876 60.5789 64.7639 59.9529C64.8146 59.5243 64.8196 59.0912 64.7789 58.6614C64.7308 58.1692 64.6218 57.6856 64.4544 57.2225C64.3655 56.9726 64.2583 56.7301 64.1337 56.4972C64.0067 56.2531 63.8614 56.0196 63.6992 55.7991C63.532 55.5702 63.3481 55.355 63.1492 55.1553C62.9423 54.952 62.7223 54.7635 62.491 54.591C62.2568 54.4229 62.0113 54.2725 61.7563 54.1411C61.2672 53.8933 60.7447 53.7239 60.2068 53.6388C59.9532 53.5981 59.6971 53.5767 59.4404 53.5748C58.5463 53.5635 57.6632 53.7813 56.8691 54.209C56.3302 54.4987 55.8377 54.8736 55.4091 55.3201C55.1033 55.6382 54.9504 55.836 54.9243 55.8146C54.8982 55.7933 55.0101 55.5684 55.2861 55.2057C55.6856 54.6927 56.1738 54.2619 56.7256 53.9355C57.1075 53.7068 57.5144 53.5264 57.9376 53.3984C58.4262 53.2516 58.9318 53.1747 59.4404 53.1696C59.7155 53.1653 59.9904 53.1834 60.2627 53.2239C60.5482 53.2652 60.83 53.33 61.1056 53.4178C61.984 53.6908 62.7856 54.1812 63.4419 54.847C63.655 55.0646 63.8519 55.2986 64.0311 55.547C64.2033 55.7866 64.3567 56.0402 64.4898 56.3053C64.619 56.5548 64.73 56.8141 64.8217 57.0809C64.991 57.5813 65.0945 58.1031 65.1294 58.6323C65.1587 59.0899 65.1356 59.5495 65.0604 60.0014C64.9543 60.6525 64.7324 61.2772 64.4059 61.8436C64.1729 62.2373 63.9994 62.4196 63.9808 62.406Z" fill="#E0E0E0"/>
<path d="M57.9786 62.2447L57.4192 63.0553L56.7219 62.5298L57.2719 61.7405C56.6137 61.1782 56.1103 60.4548 55.9443 59.8556L56.9419 59.2622C57.1393 59.8536 57.4812 60.3815 57.9339 60.7942L58.7767 59.5841C58.1409 58.8084 57.4715 57.8893 58.1856 56.8537C58.7208 56.078 59.7165 55.8318 60.9061 56.5318L61.4655 55.7271L62.161 56.2526L61.6109 57.0418C62.0895 57.4454 62.4686 57.962 62.7166 58.5486L61.747 59.175C61.5585 58.73 61.2858 58.3291 60.9452 57.9959L60.0875 59.2273C60.7289 60.003 61.3928 60.9047 60.6805 61.9247C60.1491 62.6791 59.1664 62.9312 57.9786 62.2447ZM59.5132 58.5214L60.2292 57.4937C59.8004 57.2997 59.5076 57.4025 59.3398 57.641C59.172 57.8796 59.2764 58.1898 59.5132 58.5214ZM59.4927 61.1685C59.6698 60.9144 59.5636 60.6255 59.3398 60.29L58.6443 61.2887C59.0471 61.4826 59.3323 61.3992 59.4927 61.1685Z" fill="#E0E0E0"/>
<path d="M21.4077 11.7946C21.2381 12.7586 20.7975 13.6486 20.1415 14.3521C19.4855 15.0556 18.6437 15.5411 17.7224 15.747C16.8012 15.9529 15.8419 15.8701 14.9659 15.509C14.0899 15.1479 13.3366 14.5247 12.8011 13.7183C12.2657 12.9119 11.9722 11.9585 11.9578 10.9786C11.9434 9.99876 12.2088 9.03646 12.7203 8.21342C13.2317 7.39039 13.9664 6.74358 14.8314 6.35481C15.6964 5.96604 16.6528 5.85276 17.5796 6.02931H17.5908C18.2055 6.14713 18.7918 6.38974 19.3163 6.74325C19.8408 7.09677 20.2931 7.55429 20.6476 8.08966C21.002 8.62503 21.2516 9.22778 21.382 9.86348C21.5124 10.4992 21.5212 11.1554 21.4077 11.7946Z" fill="#EBEBEB"/>
<path d="M20.2927 11.5792C20.1633 12.3137 19.8273 12.9919 19.3273 13.5278C18.8273 14.0638 18.1857 14.4335 17.4837 14.5902C16.7816 14.747 16.0506 14.6836 15.3832 14.4083C14.7157 14.133 14.1418 13.658 13.7339 13.0434C13.326 12.4288 13.1025 11.7022 13.0917 10.9555C13.0809 10.2089 13.2832 9.47561 13.6731 8.84853C14.063 8.22144 14.623 7.72868 15.2822 7.43257C15.9413 7.13645 16.6702 7.05028 17.3764 7.18495C18.3216 7.36637 19.1589 7.93081 19.704 8.75412C20.2492 9.57744 20.4576 10.5922 20.2834 11.5753L20.2927 11.5792Z" fill="#F5F5F5"/>
<path d="M20.3132 11.463C20.2914 11.3089 20.2864 11.1528 20.2982 10.9975C20.2897 10.5834 20.2193 10.1732 20.0894 9.78166C20.0002 9.5102 19.882 9.25001 19.737 9.00597C19.5713 8.73084 19.372 8.47922 19.144 8.25744C18.8934 8.01199 18.6094 7.80618 18.3012 7.64659C18.1387 7.56274 17.9704 7.49144 17.7978 7.43328C17.6196 7.37523 17.4376 7.33051 17.2533 7.29947C17.068 7.2717 16.8811 7.25744 16.6939 7.25681C16.5122 7.25874 16.3309 7.27429 16.1513 7.30335C15.9782 7.3318 15.8074 7.37393 15.6404 7.4294C15.4798 7.4814 15.3234 7.54623 15.1724 7.62332C14.6409 7.89067 14.181 8.29033 13.8336 8.78684C13.5934 9.11952 13.4047 9.4892 13.2742 9.8825C13.2403 10.0336 13.1909 10.1806 13.1269 10.3208C13.1084 10.1629 13.123 10.0028 13.1698 9.85147C13.263 9.42888 13.4306 9.02784 13.6639 8.66855C14.011 8.12722 14.4879 7.68942 15.0475 7.39837C15.2091 7.31279 15.3768 7.24018 15.5491 7.18118C15.728 7.11882 15.9113 7.07085 16.0972 7.03768C16.2932 7.00277 16.4914 6.98267 16.6902 6.97756C16.8917 6.9769 17.0931 6.99181 17.2925 7.02216C17.4915 7.05501 17.6879 7.10364 17.8798 7.1676C18.0662 7.23124 18.2476 7.30969 18.4224 7.40225C18.5913 7.4911 18.7528 7.59423 18.9054 7.71058C19.0525 7.81967 19.1909 7.94094 19.3193 8.07321C19.558 8.31559 19.7643 8.59017 19.9328 8.88962C20.0767 9.15136 20.1918 9.42913 20.2759 9.71766C20.3949 10.1329 20.4385 10.5676 20.4045 10.9995C20.4043 11.1588 20.3732 11.3164 20.3132 11.463Z" fill="#E0E0E0"/>
<path d="M16.7311 13.1812L16.6249 13.8308L16.0655 13.7319L16.168 13.0997C15.6779 12.9953 15.2257 12.7501 14.8628 12.3919L15.2842 11.7403C15.5654 12.0293 15.9145 12.2366 16.2967 12.3415L16.4552 11.3719C15.8641 11.1062 15.2096 10.7688 15.3457 9.94076C15.4464 9.32797 15.9611 8.87808 16.8579 8.93044L16.9624 8.28662L17.5217 8.38552L17.4173 9.0177C17.8116 9.11153 18.1789 9.3009 18.4895 9.57037L18.0942 10.2336C17.8582 10.0289 17.5858 9.87472 17.2924 9.77981L17.1302 10.7649C17.7231 11.0248 18.3664 11.3603 18.2322 12.1747C18.1315 12.7817 17.6224 13.2277 16.7311 13.1812ZM16.595 10.5264L16.7311 9.70418C16.4235 9.72163 16.2799 9.86901 16.2482 10.061C16.2165 10.253 16.3638 10.4003 16.595 10.5264ZM17.3241 12.0913C17.3577 11.8974 17.2141 11.75 16.9885 11.622L16.8579 12.4191C17.147 12.4035 17.2943 12.2717 17.3241 12.0894V12.0913Z" fill="#E0E0E0"/>
<path d="M83 78.5681C83 78.597 65.7542 78.6201 44.4863 78.6201C23.2184 78.6201 5.9707 78.5912 5.9707 78.5681C5.9707 78.545 23.211 78.5181 44.4863 78.5181C65.7616 78.5181 83 78.5412 83 78.5681Z" fill="#263238"/>
<path d="M28.7377 17.5188C28.7377 17.5188 28.8999 8.82916 21.9878 4.41553H43.8952C43.8952 4.41553 50.1585 9.69405 50.2107 17.5188H28.7377Z" fill="#EBEBEB"/>
<path d="M42.2243 7.58422C42.2243 7.61309 39.722 7.63618 36.6305 7.63618C33.5389 7.63618 31.0366 7.61309 31.0366 7.58422C31.0366 7.55535 33.5389 7.53418 36.6305 7.53418C39.722 7.53418 42.2243 7.55728 42.2243 7.58422Z" fill="#455A64"/>
<path d="M44.615 9.15647C44.615 9.18341 41.2997 9.20651 37.2106 9.20651C33.1214 9.20651 29.8062 9.18341 29.8062 9.15647C29.8062 9.12952 33.1214 9.10449 37.2106 9.10449C41.2997 9.10449 44.615 9.12759 44.615 9.15647Z" fill="#263238"/>
<path d="M45.8603 13.1321C45.8603 13.159 42.545 13.1821 38.4558 13.1821C34.3667 13.1821 31.0496 13.159 31.0496 13.1321C31.0496 13.1051 34.3649 13.082 38.4558 13.082C42.5468 13.082 45.8603 13.1051 45.8603 13.1321Z" fill="#263238"/>
<path d="M38.1221 10.9661C38.0222 10.9817 37.9211 10.9888 37.82 10.9872L36.9922 11.0026C36.2929 11.0123 35.3289 11.018 34.2624 11.018C33.1958 11.018 32.2318 11.018 31.5325 11.0026L30.7047 10.9872C30.6036 10.9888 30.5025 10.9817 30.4026 10.9661C30.5026 10.951 30.6036 10.9446 30.7047 10.9468L31.5325 10.9314C32.2318 10.9314 33.1958 10.916 34.2624 10.916C35.3289 10.916 36.2929 10.916 36.9922 10.9314L37.82 10.9468C37.9211 10.9446 38.0221 10.951 38.1221 10.9661Z" fill="#263238"/>
<path d="M44.6149 10.9661C44.5413 10.9818 44.4662 10.9889 44.3911 10.9872L43.7795 11.0026C43.2649 11.0123 42.5507 11.018 41.7638 11.018C40.977 11.018 40.2628 11.018 39.7482 11.0026L39.1366 10.9872C39.0615 10.9889 38.9864 10.9818 38.9128 10.9661C38.9866 10.952 39.0616 10.9456 39.1366 10.9468L39.7482 10.9314C40.2628 10.9314 40.977 10.916 41.7638 10.916C42.5507 10.916 43.2555 10.916 43.7795 10.9314L44.3911 10.9468C44.4661 10.9446 44.5412 10.9511 44.6149 10.9661Z" fill="#263238"/>
<path d="M39.4966 15.2629C39.396 15.2787 39.2943 15.2858 39.1926 15.2841L38.3666 15.2995C37.6674 15.2995 36.7015 15.3149 35.6368 15.3149C34.5721 15.3149 33.6043 15.3149 32.9051 15.2995L32.0791 15.2841C31.9774 15.2858 31.8757 15.2787 31.7751 15.2629C31.8758 15.2479 31.9774 15.2414 32.0791 15.2437L32.9051 15.2283C33.6043 15.2283 34.5702 15.2129 35.6368 15.2129C36.7033 15.2129 37.6674 15.2129 38.3666 15.2283L39.1926 15.2437C39.2943 15.2414 39.3959 15.2479 39.4966 15.2629Z" fill="#263238"/>
<path d="M45.989 15.2629C45.9155 15.2787 45.8404 15.2858 45.7653 15.2841L45.1537 15.2995C44.6372 15.2995 43.9249 15.3149 43.138 15.3149C42.3512 15.3149 41.6463 15.3149 41.1205 15.2995L40.5089 15.2841C40.4338 15.2858 40.3587 15.2787 40.2852 15.2629C40.3589 15.2489 40.4339 15.2425 40.5089 15.2437L41.1205 15.2283C41.637 15.2283 42.3493 15.2129 43.138 15.2129C43.9268 15.2129 44.6297 15.2129 45.1537 15.2283L45.7653 15.2437C45.8403 15.2425 45.9152 15.2489 45.989 15.2629Z" fill="#263238"/>
<path d="M24.2587 17.2725H56.58L58.3402 75.5068C58.3522 75.8975 58.29 76.2868 58.1571 76.6525C58.0243 77.0182 57.8235 77.353 57.5662 77.638C57.3088 77.9229 57 78.1522 56.6574 78.313C56.3148 78.4737 55.9451 78.5626 55.5694 78.5746H21.8701C21.3953 78.5747 20.9386 78.3849 20.5946 78.0445C20.2507 77.7041 20.0457 77.2392 20.0223 76.746L18.469 43.8629C18.469 43.8629 8.88303 40.2443 9.04525 29.2044C9.04525 29.2044 9.48157 17.2725 24.2587 17.2725Z" fill="#263238"/>
<path d="M26.0134 78.4874L24.6038 17.2725H57.753L58.3515 75.9121C58.3721 76.5946 58.1313 77.2576 57.682 77.7554C57.2327 78.2532 56.6117 78.5451 55.9555 78.5669H55.8697L26.0134 78.4874Z" fill="#455A64"/>
<path d="M27.3428 20.8193L28.014 49.3218H55.0119L54.6483 20.8193H27.3428Z" fill="#263238"/>
<path d="M30.3299 24.5075C31.6482 24.8779 33.3133 24.7209 34.6671 24.653C34.766 24.653 34.8608 24.6121 34.9308 24.5394C35.0007 24.4667 35.04 24.368 35.04 24.2651C35.04 24.1623 35.0007 24.0636 34.9308 23.9909C34.8608 23.9182 34.766 23.8773 34.6671 23.8773C33.3133 23.8075 31.6464 23.6504 30.3299 24.0227C30.2669 24.0421 30.2138 24.0866 30.1824 24.1466C30.1509 24.2066 30.1436 24.2771 30.1621 24.3427C30.1741 24.3839 30.1957 24.4214 30.225 24.4518C30.2543 24.4823 30.2903 24.5047 30.3299 24.5172V24.5075Z" fill="#E0E0E0"/>
<path d="M36.9716 24.4514C38.2656 24.7947 39.9382 24.7326 41.2602 24.6008C41.3591 24.6008 41.454 24.5599 41.5239 24.4872C41.5938 24.4144 41.6331 24.3158 41.6331 24.2129C41.6331 24.1101 41.5938 24.0114 41.5239 23.9387C41.454 23.8659 41.3591 23.8251 41.2602 23.8251C39.9382 23.6913 38.2656 23.6311 36.9716 23.9744C36.9413 23.9839 36.9132 23.9996 36.8887 24.0204C36.8643 24.0413 36.844 24.0669 36.8292 24.0959C36.8143 24.1249 36.805 24.1567 36.8019 24.1894C36.7988 24.2221 36.802 24.2552 36.8112 24.2866C36.8225 24.3261 36.8431 24.362 36.8711 24.3911C36.8991 24.4202 36.9336 24.4416 36.9716 24.4534V24.4514Z" fill="#E0E0E0"/>
<path d="M43.5239 24.3294C44.1747 24.535 44.8776 24.5001 45.5526 24.5117C46.2419 24.5544 46.9333 24.5408 47.6205 24.471C47.958 24.4206 47.958 23.8097 47.6205 23.7612C46.9334 23.6898 46.2419 23.6756 45.5526 23.7186C44.8776 23.7302 44.1747 23.6953 43.5239 23.9009C43.4792 23.9143 43.4399 23.9424 43.412 23.9811C43.384 24.0197 43.3689 24.0668 43.3689 24.1151C43.3689 24.1635 43.384 24.2106 43.412 24.2492C43.4399 24.2879 43.4792 24.316 43.5239 24.3294Z" fill="#E0E0E0"/>
<path d="M49.5951 24.3684C50.0861 24.4427 50.5814 24.4822 51.0775 24.4867C51.5698 24.4983 52.1012 24.5817 52.5785 24.4401C52.6456 24.419 52.7043 24.376 52.746 24.3175C52.7878 24.2591 52.8103 24.1881 52.8103 24.1153C52.8103 24.0424 52.7878 23.9715 52.746 23.913C52.7043 23.8545 52.6456 23.8116 52.5785 23.7905C52.1012 23.6489 51.5698 23.7323 51.0775 23.7439C50.5813 23.7481 50.0859 23.7883 49.5951 23.8642C49.5433 23.8807 49.4979 23.9142 49.4656 23.9595C49.4334 24.0049 49.416 24.0598 49.416 24.1163C49.416 24.1727 49.4334 24.2276 49.4656 24.273C49.4979 24.3184 49.5433 24.3518 49.5951 24.3684Z" fill="#E0E0E0"/>
<path d="M35.8474 52.7119H28.0234V58.5276H35.8474V52.7119Z" fill="#FF725E"/>
<path d="M29.4387 52.7119H28.0234V58.5276H29.4387V52.7119Z" fill="#263238"/>
<path d="M45.4277 52.7119H37.6038V58.5276H45.4277V52.7119Z" fill="#FF725E"/>
<path d="M38.9387 52.7119H37.5234V58.5276H38.9387V52.7119Z" fill="#263238"/>
<path d="M55.01 52.7119H47.186V58.5276H55.01V52.7119Z" fill="#FF725E"/>
<path d="M48.3779 52.7119H46.9626V58.5276H48.3779V52.7119Z" fill="#263238"/>
<path d="M55.01 60.4487H47.186V66.2644H55.01V60.4487Z" fill="#FF725E"/>
<path d="M48.6442 60.4487H47.186V66.2644H48.6442V60.4487Z" fill="#263238"/>
<path d="M35.8474 60.4487H28.0234V66.2644H35.8474V60.4487Z" fill="#FF725E"/>
<path d="M29.4387 60.4375H28.0234V66.2532H29.4387V60.4375Z" fill="#263238"/>
<path d="M35.8474 68.1089H28.0234V73.9246H35.8474V68.1089Z" fill="#FF725E"/>
<path opacity="0.3" d="M35.8474 68.1089H28.0234V73.9246H35.8474V68.1089Z" fill="black"/>
<path d="M29.4387 68.1089H28.0234V73.9246H29.4387V68.1089Z" fill="#263238"/>
<path d="M45.3848 60.4487H37.5608V66.2644H45.3848V60.4487Z" fill="#FF725E"/>
<path d="M38.976 60.4375H37.5608V66.2532H38.976V60.4375Z" fill="#263238"/>
<path d="M45.4277 68.1089H37.6038V73.9246H45.4277V68.1089Z" fill="#FF725E"/>
<path opacity="0.3" d="M45.4277 68.1089H37.6038V73.9246H45.4277V68.1089Z" fill="black"/>
<path d="M39.019 68.1089H37.6038V73.9246H39.019V68.1089Z" fill="#263238"/>
<path d="M55.01 68.1089H47.186V73.9246H55.01V68.1089Z" fill="#E0E0E0"/>
<path d="M48.6013 68.1089H47.186V73.9246H48.6013V68.1089Z" fill="#263238"/>
<path d="M23.4308 78.5766C23.2966 78.5766 22.8062 64.8587 22.3344 47.9372C21.8627 31.0156 21.5886 17.2802 21.7228 17.2764C21.8571 17.2725 22.3475 30.9904 22.8192 47.9158C23.291 64.8412 23.5651 78.5727 23.4308 78.5766Z" fill="#455A64"/>
<path d="M54.9709 46.0752V47.1204L58.0662 47.9213L58.0494 46.3098L54.9709 46.0752Z" fill="#455A64"/>
<path d="M17.397 43.9786C17.2276 43.9088 17.0457 43.8777 16.8637 43.8875C16.6805 43.9053 16.5009 43.9511 16.3304 44.0232L14.2122 44.7601L10.0728 46.2068L2.24137 48.9217C1.93236 49.0135 1.66679 49.2206 1.49552 49.5034C1.3258 49.7801 1.26255 50.1132 1.31838 50.4362C1.35263 50.5963 1.39749 50.7538 1.45263 50.9074L1.60367 51.3767C1.70436 51.6889 1.80318 51.9973 1.90387 52.3056C2.29668 53.5325 2.67955 54.7238 3.05248 55.8796C3.79833 58.1872 4.48451 60.3397 5.11661 62.2964C6.37337 66.2194 7.39332 69.3958 8.10001 71.591C8.45056 72.6886 8.72093 73.5399 8.90739 74.112C8.99689 74.4009 9.06775 74.62 9.11436 74.7694C9.16098 74.9187 9.18149 74.9943 9.18149 74.9943C9.20647 75.0685 9.23831 75.1399 9.27658 75.2076C9.3841 75.4097 9.53941 75.5799 9.72782 75.7021C9.88048 75.8005 10.051 75.8651 10.2288 75.8918C10.4065 75.9184 10.5876 75.9067 10.7608 75.8573C11.1673 75.7215 11.6335 75.5509 12.1612 75.3686L19.9478 72.6382L11.6428 45.6638L15.7972 44.2152L23.2985 68.1198L22.9704 59.8045C21.46 55.1252 19.8285 50.0658 18.1223 44.7854C18.0645 44.6045 17.9697 44.4387 17.8445 44.2995C17.7193 44.1602 17.5667 44.0508 17.397 43.9786ZM7.82404 56.2674L5.97061 50.1667L6.59899 49.9592L8.45242 56.0599L7.82404 56.2674ZM9.11063 52.9067L8.02915 49.3502L8.65753 49.1447L9.73901 52.6993L9.11063 52.9067ZM10.5613 57.4173L9.48169 53.8608L10.1101 53.6553L11.1897 57.2098L10.5613 57.4173ZM10.9342 58.3714L11.5626 58.1639L14.546 68.0112L13.9176 68.2168L10.9342 58.3714ZM14.8499 71.2555L14.2104 69.1515L14.8387 68.944L15.4783 71.05L14.8499 71.2555ZM17.4362 70.1385L16.8078 70.3441L12.8604 57.3514L13.4888 57.1459L17.4362 70.1385ZM13.1662 55.9028L12.5378 56.1084L10.2481 48.5784L10.8764 48.3709L13.1662 55.9028Z" fill="#FF725E"/>
<path opacity="0.3" d="M17.397 43.9786C17.2276 43.9088 17.0457 43.8777 16.8637 43.8875C16.6805 43.9053 16.5009 43.9511 16.3304 44.0232L14.2122 44.7601L10.0728 46.2068L2.24137 48.9217C1.93236 49.0135 1.66679 49.2206 1.49552 49.5034C1.3258 49.7801 1.26255 50.1132 1.31838 50.4362C1.35263 50.5963 1.39749 50.7538 1.45263 50.9074L1.60367 51.3767C1.70436 51.6889 1.80318 51.9973 1.90387 52.3056C2.29668 53.5325 2.67955 54.7238 3.05248 55.8796C3.79833 58.1872 4.48451 60.3397 5.11661 62.2964C6.37337 66.2194 7.39332 69.3958 8.10001 71.591C8.45056 72.6886 8.72093 73.5399 8.90739 74.112C8.99689 74.4009 9.06775 74.62 9.11436 74.7694C9.16098 74.9187 9.18149 74.9943 9.18149 74.9943C9.20647 75.0685 9.23831 75.1399 9.27658 75.2076C9.3841 75.4097 9.53941 75.5799 9.72782 75.7021C9.88048 75.8005 10.051 75.8651 10.2288 75.8918C10.4065 75.9184 10.5876 75.9067 10.7608 75.8573C11.1673 75.7215 11.6335 75.5509 12.1612 75.3686L19.9478 72.6382L11.6428 45.6638L15.7972 44.2152L23.2985 68.1198L22.9704 59.8045C21.46 55.1252 19.8285 50.0658 18.1223 44.7854C18.0645 44.6045 17.9697 44.4387 17.8445 44.2995C17.7193 44.1602 17.5667 44.0508 17.397 43.9786ZM7.82404 56.2674L5.97061 50.1667L6.59899 49.9592L8.45242 56.0599L7.82404 56.2674ZM9.11063 52.9067L8.02915 49.3502L8.65753 49.1447L9.73901 52.6993L9.11063 52.9067ZM10.5613 57.4173L9.48169 53.8608L10.1101 53.6553L11.1897 57.2098L10.5613 57.4173ZM10.9342 58.3714L11.5626 58.1639L14.546 68.0112L13.9176 68.2168L10.9342 58.3714ZM14.8499 71.2555L14.2104 69.1515L14.8387 68.944L15.4783 71.05L14.8499 71.2555ZM17.4362 70.1385L16.8078 70.3441L12.8604 57.3514L13.4888 57.1459L17.4362 70.1385ZM13.1662 55.9028L12.5378 56.1084L10.2481 48.5784L10.8764 48.3709L13.1662 55.9028Z" fill="black"/>
<path d="M19.9531 72.6758L19.9438 72.6448L12.1572 75.3752C11.6295 75.5575 11.1633 75.7281 10.7568 75.8639C10.5836 75.9133 10.4025 75.9251 10.2248 75.8984C10.047 75.8717 9.87648 75.8071 9.72382 75.7088C9.53541 75.5865 9.3801 75.4163 9.27259 75.2143C9.19987 75.0785 9.18308 74.999 9.17749 75.0009L9.19614 75.0572C9.29386 75.3327 9.47601 75.5671 9.7145 75.7243C9.86824 75.8268 10.0409 75.8946 10.2214 75.9233C10.402 75.952 10.5862 75.941 10.7624 75.891C11.1726 75.7572 11.6388 75.5905 12.1683 75.4082L21.1055 72.3055L23.2255 71.5686L23.4306 71.46L19.9531 72.6758Z" fill="#263238"/>
<path d="M9.11069 74.7737C9.06408 74.6243 8.99322 74.4052 8.90372 74.1163C8.71726 73.5345 8.44689 72.6851 8.09634 71.5953C7.39338 69.4001 6.37343 66.2237 5.11295 62.3007C4.48084 60.3402 3.79093 58.1915 3.04881 55.8839C2.67589 54.7307 2.29302 53.5394 1.90021 52.3099C1.79952 52.0016 1.70069 51.6932 1.6 51.381L1.44897 50.9117C1.39383 50.7581 1.34897 50.6006 1.31472 50.4405C1.26163 50.1163 1.32823 49.7831 1.50118 49.5077C1.67245 49.2249 1.93803 49.0178 2.24703 48.926L10.0784 46.2111L14.2179 44.7683L16.3361 44.0314C16.5065 43.9593 16.6862 43.9135 16.8694 43.8957C17.1449 43.8805 17.4175 43.9597 17.6456 44.1212C17.8736 44.2827 18.0444 44.5175 18.1317 44.7897C19.8341 50.0701 21.4657 55.1295 22.9797 59.8088L22.9667 59.4947C21.4862 54.8949 19.8863 49.9344 18.2212 44.7567C18.1585 44.563 18.0562 44.3858 17.9213 44.2372C17.7864 44.0885 17.6222 43.972 17.44 43.8957C17.2583 43.82 17.0629 43.7869 16.8675 43.7987C16.6755 43.8169 16.4871 43.8639 16.3081 43.9383L14.1918 44.6772L10.0523 46.12L2.22092 48.8504C1.89332 48.9441 1.61048 49.1602 1.42659 49.4573C1.24734 49.7532 1.18083 50.108 1.24013 50.4521C1.27563 50.6161 1.32173 50.7775 1.37812 50.935C1.42846 51.0921 1.48067 51.2472 1.53101 51.4043C1.62984 51.7146 1.73053 52.0248 1.82935 52.3312C2.22714 53.5594 2.61187 54.7507 2.98355 55.9052L5.05515 62.3143L8.06278 71.5992C8.42079 72.6929 8.69675 73.5384 8.88508 74.1202C8.98017 74.4072 9.05289 74.6263 9.10137 74.7756L9.17782 74.9986C9.17782 74.9986 9.15731 74.923 9.11069 74.7737Z" fill="#263238"/>
<path d="M13.4821 57.1497L12.8545 57.356L16.8027 70.3474L17.4303 70.1411L13.4821 57.1497Z" fill="#FAFAFA"/>
<path d="M10.8754 48.3718L10.2478 48.5781L12.5377 56.113L13.1653 55.9067L10.8754 48.3718Z" fill="#FAFAFA"/>
<path d="M8.65813 49.1443L8.03052 49.3506L9.11114 52.9063L9.73875 52.7L8.65813 49.1443Z" fill="#FAFAFA"/>
<path d="M6.48231 49.7768L5.85645 49.9824L7.7031 56.0624L8.32896 55.8568L6.48231 49.7768Z" fill="#FAFAFA"/>
<path d="M14.8461 68.9431L14.2185 69.1494L14.858 71.2536L15.4856 71.0473L14.8461 68.9431Z" fill="#FAFAFA"/>
<path d="M10.1083 53.6555L9.48071 53.8618L10.5613 57.4175L11.1889 57.2112L10.1083 53.6555Z" fill="#FAFAFA"/>
<path d="M11.5551 58.1702L10.9275 58.3765L13.9198 68.2226L14.5474 68.0163L11.5551 58.1702Z" fill="#FAFAFA"/>
<path d="M11.6428 45.6649L19.9441 72.6451L19.9534 72.6761L23.431 71.4641L23.2986 68.117L15.7972 44.2163L11.6428 45.6649Z" fill="#FAFAFA"/>
<path d="M19.9065 74.2867L23.2777 73.0534L23.205 71.5156L19.9531 72.6753L19.9065 74.2867Z" fill="#263238"/>
<path d="M62.4128 29.6478C62.4128 29.6747 62.3084 29.692 62.1779 29.6863C62.0473 29.6805 61.9466 29.6535 61.9485 29.6247C61.9504 29.5958 62.0548 29.5804 62.1835 29.5862C62.3121 29.5919 62.4147 29.6189 62.4128 29.6478Z" fill="#263238"/>
<path d="M64.2381 29.5669C64.0948 29.629 63.9403 29.6586 63.785 29.6535C63.6323 29.6827 63.4753 29.6781 63.3245 29.64C63.6206 29.5495 63.932 29.5246 64.2381 29.5669Z" fill="#263238"/>
<path d="M66.0468 29.2314C65.9124 29.3127 65.7631 29.3636 65.6086 29.3808C65.4605 29.4295 65.3045 29.4466 65.1499 29.4312C65.4323 29.3012 65.738 29.2351 66.0468 29.2373V29.2314Z" fill="#263238"/>
<path d="M67.7904 28.6514C67.6679 28.7499 67.5269 28.8206 67.3765 28.8589C67.2366 28.9289 67.0841 28.9672 66.929 28.9713C67.051 28.8721 67.1922 28.8013 67.3429 28.7638C67.4833 28.6956 67.6355 28.6574 67.7904 28.6514Z" fill="#263238"/>
<path d="M69.4443 27.8311C69.2055 28.0346 68.9286 28.1844 68.6313 28.2712C68.7409 28.1567 68.8715 28.0663 69.0155 28.0056C69.1452 27.9171 69.2913 27.8577 69.4443 27.8311Z" fill="#263238"/>
<path d="M70.9675 26.7747C70.9843 26.796 70.8314 26.9396 70.6244 27.0947C70.5087 27.2021 70.3728 27.2833 70.2254 27.3332C70.2105 27.3099 70.3634 27.1664 70.5685 27.0113C70.7736 26.8562 70.9507 26.7514 70.9675 26.7747Z" fill="#263238"/>
<path d="M72.3138 25.4823C72.3343 25.5017 72.2038 25.6762 72.0248 25.8547C71.8458 26.0331 71.6836 26.1766 71.6668 26.1552C71.65 26.1339 71.7768 25.9613 71.9558 25.7829C72.1348 25.6045 72.2933 25.4571 72.3138 25.4823Z" fill="#263238"/>
<path d="M73.427 23.9727C73.4513 23.9863 73.3506 24.1666 73.2051 24.3916C73.0597 24.6165 72.9236 24.7794 72.9031 24.7542C72.9492 24.5999 73.0247 24.4568 73.125 24.3334C73.2704 24.1201 73.4047 23.9572 73.427 23.9727Z" fill="#263238"/>
<path d="M74.2474 22.2695C74.1841 22.5846 74.0569 22.8821 73.8745 23.1422C73.9338 22.8257 74.0613 22.5274 74.2474 22.2695Z" fill="#263238"/>
<path d="M74.7321 20.4346C74.7459 20.5951 74.7275 20.7569 74.678 20.9097C74.6598 21.0702 74.609 21.2249 74.5288 21.3634C74.5323 21.0423 74.6016 20.7257 74.7321 20.4346Z" fill="#263238"/>
<path d="M74.9187 18.5405C74.9659 18.8579 74.9462 19.1821 74.8609 19.4907C74.8231 19.3348 74.8167 19.1723 74.8423 19.0137C74.8368 18.8522 74.8628 18.6913 74.9187 18.5405Z" fill="#263238"/>
<path d="M74.8273 16.6396C74.9198 16.9459 74.9472 17.2695 74.9074 17.5879C74.8478 17.4393 74.818 17.2796 74.8198 17.1186C74.7915 16.9601 74.794 16.7972 74.8273 16.6396Z" fill="#263238"/>
<path d="M74.4564 14.7744C74.5383 14.9115 74.5922 15.0646 74.6149 15.2243C74.6675 15.3764 74.6891 15.5382 74.6783 15.6994C74.5964 15.5623 74.5425 15.4092 74.5198 15.2495C74.4682 15.0972 74.4466 14.9356 74.4564 14.7744Z" fill="#263238"/>
<path d="M73.7922 13C73.8955 13.1203 73.9736 13.2616 74.0216 13.415C74.0994 13.5553 74.1471 13.7114 74.1614 13.8726C74.059 13.751 73.981 13.6092 73.9321 13.4557C73.8559 13.3154 73.8083 13.1603 73.7922 13Z" fill="#263238"/>
<path d="M72.8152 11.389C72.8357 11.3715 72.9699 11.5325 73.1173 11.7497C73.2183 11.8718 73.2939 12.0145 73.3391 12.1685C73.3168 12.1841 73.1807 12.0212 73.0371 11.8079C72.936 11.6857 72.8605 11.5431 72.8152 11.389Z" fill="#263238"/>
<path d="M71.5456 10.0235C71.5623 10.0022 71.732 10.1185 71.9185 10.2989C72.1049 10.4792 72.2317 10.6499 72.2131 10.6693C72.1944 10.6887 72.0378 10.551 71.8532 10.3726C71.6686 10.1942 71.5288 10.0448 71.5456 10.0235Z" fill="#263238"/>
<path d="M70.4063 9.20521C70.4194 9.18194 70.5201 9.21878 70.6301 9.28859C70.7401 9.3584 70.8165 9.43403 70.8035 9.4573C70.7904 9.48057 70.6879 9.44372 70.5797 9.37585C70.4716 9.30798 70.3914 9.23042 70.4063 9.20521Z" fill="#263238"/>
<path d="M65.3494 13.9949C68.9167 13.9949 71.8085 10.9874 71.8085 7.27747C71.8085 3.56754 68.9167 0.560059 65.3494 0.560059C61.7822 0.560059 58.8904 3.56754 58.8904 7.27747C58.8904 10.9874 61.7822 13.9949 65.3494 13.9949Z" fill="#FF725E"/>
<path d="M61.5291 7.7677L62.5285 6.72829L64.4565 8.51042L68.2417 4.72314L69.1703 5.76256L64.3148 10.5156L61.5291 7.7677Z" fill="#FAFAFA"/>
<path d="M69.1177 36.5655L68.1668 32.9412C68.1668 32.9412 63.6917 34.1532 63.4064 33.777C61.7823 31.6884 60.9619 28.8184 60.7064 27.7887C60.7419 27.6413 60.7903 27.4687 60.8556 27.267C60.9123 27.0944 60.9968 26.9331 61.1055 26.79C61.2338 26.6077 61.3857 26.4446 61.5567 26.3052C61.6032 26.2779 61.6373 26.2325 61.6516 26.1791C61.666 26.1257 61.6593 26.0685 61.6331 26.0201C61.6198 25.9931 61.6005 25.9697 61.5769 25.9519C61.5532 25.934 61.5259 25.9222 61.497 25.9173C61.3106 25.9038 60.8407 26.1985 60.4883 26.759C60.1359 27.3194 60.0296 26.2722 59.9848 25.8921C59.9401 25.5121 59.7443 24.3408 59.6212 24.2574C59.4348 24.143 59.2875 24.3233 59.3415 24.7034C59.3956 25.0835 59.4795 26.2354 59.2856 26.2548C59.0917 26.2742 58.8866 24.3156 58.8866 24.3156C58.8866 24.3156 58.9071 23.8928 58.6815 23.9025C58.2731 23.92 58.6404 25.9716 58.6815 26.1675C58.7094 26.3013 58.495 26.3265 58.4763 26.1791C58.4577 26.0318 58.3123 24.2399 57.8983 24.2399C57.5795 24.2516 58.1836 25.9309 58.0139 26.3207C57.8442 26.7105 57.6802 24.9982 57.3762 25.0214C57.2643 25.0214 57.1804 25.0525 57.4117 26.0221C57.6062 26.7132 57.8365 27.3929 58.1016 28.0582H58.0848C58.0848 28.0582 59.7443 38.1848 64.0516 37.6185C68.6367 37.029 69.1177 36.5655 69.1177 36.5655Z" fill="#FFBE9D"/>
<path d="M62.6195 46.6119L35.2898 44.5428C34.9193 44.5159 34.5741 44.3376 34.3296 44.047C34.085 43.7563 33.961 43.3768 33.9845 42.9914L35.2077 25.5288C35.2336 25.1436 35.4049 24.7846 35.6844 24.5302C35.9639 24.2759 36.3288 24.1469 36.6994 24.1714L64.0515 26.2328C64.4239 26.2601 64.7706 26.4401 65.0153 26.7332C65.2601 27.0263 65.3829 27.4085 65.3568 27.7958L64.1336 45.2583C64.1208 45.45 64.0718 45.6371 63.9895 45.8091C63.9071 45.9811 63.793 46.1345 63.6536 46.2605C63.5142 46.3866 63.3523 46.4829 63.1771 46.5438C63.0019 46.6048 62.8169 46.6292 62.6326 46.6158L62.6195 46.6119Z" fill="#FF725E"/>
<path d="M62.6195 46.6121C62.7034 46.6121 62.7854 46.6121 62.8693 46.6121C63.114 46.5848 63.3471 46.4897 63.5443 46.3367C63.7036 46.2138 63.8358 46.057 63.9323 45.8768C64.0288 45.6966 64.0872 45.497 64.1037 45.2915C64.1373 44.7989 64.1764 44.2308 64.2193 43.5928L64.9652 32.7778C65.0435 31.6363 65.1262 30.4411 65.2132 29.1922C65.2356 28.8819 65.2561 28.5658 65.2784 28.2498C65.3308 27.9365 65.3232 27.6156 65.2561 27.3054C65.1716 26.9964 64.9872 26.7272 64.734 26.5433C64.6069 26.4497 64.4658 26.3789 64.3163 26.3338C64.162 26.297 64.0046 26.2756 63.8464 26.2698L55.6029 25.6512L36.7162 24.2143C36.514 24.1989 36.3111 24.2308 36.1223 24.3076C35.9336 24.3845 35.7638 24.5043 35.6254 24.6583C35.487 24.8114 35.3838 24.9951 35.3233 25.1955C35.271 25.4006 35.2434 25.6116 35.2412 25.8238C35.1791 26.6848 35.1169 27.5394 35.0548 28.3874C34.9305 30.0849 34.8136 31.7552 34.7042 33.3983C34.473 36.6834 34.2493 39.854 34.0367 42.8714C33.9879 43.2378 34.076 43.6098 34.2828 43.9108C34.4865 44.2072 34.7925 44.4101 35.1368 44.477C35.8323 44.5488 36.5372 44.5876 37.2233 44.6457L41.223 44.9502L48.4055 45.5009L58.8026 46.3038L61.6275 46.5287L62.3734 46.5946L62.6232 46.6179C62.6232 46.6179 62.5393 46.6179 62.3734 46.6043L61.6275 46.5539L58.8007 46.3503L48.3999 45.5746L41.223 45.0433L37.2215 44.7427C36.5334 44.6865 35.8417 44.6496 35.1256 44.5759C34.7591 44.5053 34.433 44.2899 34.2157 43.9748C33.9979 43.6558 33.904 43.2631 33.9528 42.8753C34.1635 39.8559 34.3854 36.6872 34.6147 33.4003C34.7291 31.7571 34.8453 30.0868 34.9634 28.3894C35.0231 27.54 35.0852 26.6855 35.1499 25.8257C35.1533 25.6058 35.1821 25.387 35.2357 25.1742C35.3345 24.8501 35.5355 24.5702 35.8062 24.3795C36.0768 24.1888 36.4013 24.0985 36.7274 24.1231L55.6141 25.5581L63.8557 26.1864C64.0191 26.1924 64.1815 26.2152 64.3405 26.2543C64.5766 26.3252 64.7919 26.4563 64.9668 26.6358C65.1417 26.8154 65.2706 27.0375 65.3418 27.2821C65.3868 27.4418 65.4051 27.6085 65.3959 27.7746C65.3959 27.9375 65.3754 28.0946 65.3642 28.2556C65.3418 28.5717 65.3195 28.8878 65.2971 29.198C65.2088 30.4456 65.1243 31.6401 65.0435 32.7817C64.7172 37.3466 64.4524 41.0408 64.2697 43.5966C64.2231 44.2346 64.182 44.7989 64.1466 45.2934C64.1283 45.503 64.0668 45.706 63.9664 45.8886C63.8661 46.0713 63.7291 46.2294 63.5649 46.3522C63.3648 46.5056 63.1281 46.5988 62.8805 46.6218C62.8185 46.6276 62.7561 46.6276 62.6941 46.6218L62.6195 46.6121Z" fill="#263238"/>
<path d="M37.0759 37.2873L36.9547 39.0326L36.7832 39.019L36.8932 37.4386L36.4998 37.4095L36.5109 37.2505L37.0759 37.2873Z" fill="#FAFAFA"/>
<path d="M38.6927 39.0034L38.6797 39.1624L37.5068 39.0732V38.9471L38.2527 38.2917C38.4541 38.1113 38.4988 37.9989 38.5063 37.8786C38.5212 37.6847 38.3925 37.5431 38.1333 37.5238C38.0485 37.5111 37.9621 37.5188 37.8806 37.5464C37.7991 37.5739 37.7248 37.6206 37.6635 37.6828L37.5497 37.5645C37.6304 37.4856 37.727 37.4264 37.8325 37.3911C37.938 37.3559 38.0497 37.3456 38.1595 37.3609C38.4988 37.3861 38.7021 37.5819 38.6815 37.8728C38.6694 37.9786 38.6351 38.0804 38.5809 38.1709C38.5268 38.2613 38.4542 38.3383 38.3683 38.3964L37.7604 38.9336L38.6927 39.0034Z" fill="#FAFAFA"/>
<path d="M40.4678 38.8377L40.134 38.8124L40.1004 39.2701L39.9289 39.2565L39.9606 38.7989L39.0171 38.7291V38.5991L39.9848 37.5132L40.1713 37.5268L39.239 38.5856L39.9662 38.6418L39.9941 38.2384L40.162 38.2501L40.134 38.6534L40.4678 38.6786V38.8377Z" fill="#FAFAFA"/>
<path d="M43.0317 39.032L42.698 39.0068L42.6644 39.4644L42.4929 39.4509L42.5246 38.9952L41.5811 38.9234V38.7935L42.5488 37.7075L42.7353 37.723L41.8029 38.7799L42.5302 38.8361L42.5581 38.4328L42.7259 38.4464L42.6961 38.8478L43.0317 38.873V39.032Z" fill="#FAFAFA"/>
<path d="M44.4974 39.0878C44.4769 39.3845 44.2625 39.5998 43.8541 39.5687C43.6334 39.5607 43.4242 39.4641 43.2705 39.2992L43.3637 39.1654C43.4938 39.3102 43.6731 39.3965 43.8635 39.4058C44.1469 39.4272 44.3072 39.2934 44.3222 39.082C44.3371 38.8706 44.214 38.7097 43.7889 38.6767L43.4327 38.6495L43.58 37.7847L44.4956 37.8545L44.4844 38.0135L43.7199 37.9553L43.6229 38.5041L43.8392 38.5216C44.3427 38.5584 44.5198 38.7795 44.4974 39.0878Z" fill="#FAFAFA"/>
<path d="M46.1512 39.2067C46.1398 39.3494 46.0746 39.4817 45.9698 39.5747C45.8651 39.6677 45.7292 39.7138 45.5918 39.7031H45.5471C45.1015 39.6701 44.8833 39.3308 44.9225 38.782C44.9635 38.1905 45.2954 37.9055 45.7503 37.9404C45.8886 37.9443 46.0233 37.9872 46.14 38.0645L46.0599 38.2041C45.9657 38.1372 45.855 38.1002 45.741 38.0974C45.3793 38.0703 45.1313 38.2914 45.0977 38.7645V38.908C45.1523 38.8156 45.2317 38.7417 45.3261 38.6955C45.4205 38.6494 45.5258 38.6329 45.6291 38.6482C45.7619 38.6434 45.8912 38.6933 45.9889 38.7869C46.0866 38.8806 46.1449 39.0105 46.1512 39.1485C46.1531 39.1678 46.1531 39.1873 46.1512 39.2067ZM45.9816 39.2067C45.9983 38.9778 45.8454 38.8188 45.5881 38.7994C45.538 38.7896 45.4866 38.7901 45.4367 38.801C45.3868 38.8119 45.3395 38.8328 45.2974 38.8627C45.2553 38.8926 45.2193 38.9309 45.1915 38.9752C45.1636 39.0196 45.1444 39.0693 45.135 39.1213C45.135 39.1213 45.135 39.1388 45.135 39.1466C45.1201 39.3405 45.2618 39.5344 45.5508 39.5538C45.5992 39.5624 45.6487 39.561 45.6966 39.5497C45.7444 39.5383 45.7896 39.5173 45.8297 39.4878C45.8697 39.4582 45.9037 39.4207 45.9298 39.3775C45.9558 39.3343 45.9734 39.2861 45.9816 39.2358C45.9825 39.2235 45.9825 39.2112 45.9816 39.1989V39.2067Z" fill="#FAFAFA"/>
<path d="M48.439 39.4006C48.4185 39.6915 48.2003 39.899 47.7957 39.8679C47.5744 39.86 47.3646 39.7635 47.2102 39.5984L47.3034 39.4646C47.4353 39.609 47.6156 39.6951 47.8069 39.705C48.0847 39.7244 48.2469 39.6023 48.2618 39.387C48.2768 39.1718 48.1444 39.0302 47.8349 38.9992L47.7155 38.9895L47.7248 38.8576L48.2301 38.2894L47.3743 38.2254L47.3855 38.0664L48.4614 38.1479L48.452 38.2739L47.9355 38.8557C48.2935 38.9119 48.4576 39.1213 48.439 39.4006Z" fill="#FAFAFA"/>
<path d="M50.117 39.5074C50.1065 39.6508 50.0417 39.7841 49.9368 39.8779C49.832 39.9717 49.6956 40.0184 49.5576 40.0077C49.5409 40.0096 49.524 40.0096 49.5073 40.0077C49.0635 39.9747 48.8435 39.6354 48.8826 39.0866C48.9236 38.5048 49.2556 38.2101 49.7105 38.245C49.8488 38.2489 49.9835 38.2918 50.1002 38.3691L50.0201 38.5087C49.9263 38.441 49.8153 38.4039 49.7012 38.402C49.3395 38.3749 49.0915 38.596 49.0579 39.0691V39.2126C49.1125 39.1202 49.1919 39.0463 49.2863 39.0001C49.3807 38.954 49.486 38.9375 49.5893 38.9528C49.7236 38.947 49.8545 38.9968 49.9534 39.0914C50.0524 39.1859 50.1112 39.3174 50.117 39.457C50.1185 39.4737 50.1185 39.4906 50.117 39.5074ZM49.9473 39.5074C49.9641 39.2786 49.8112 39.1196 49.5539 39.1002C49.5038 39.0903 49.4524 39.0909 49.4025 39.1017C49.3526 39.1126 49.3053 39.1336 49.2632 39.1635C49.2211 39.1934 49.1851 39.2316 49.1572 39.276C49.1294 39.3203 49.1102 39.37 49.1008 39.4221C49.1008 39.4221 49.1008 39.4395 49.1008 39.4473C49.0859 39.6412 49.2276 39.8351 49.5166 39.8545C49.565 39.8631 49.6145 39.8617 49.6623 39.8504C49.7102 39.8391 49.7554 39.818 49.7954 39.7885C49.8355 39.7589 49.8695 39.7215 49.8955 39.6782C49.9216 39.635 49.9392 39.5868 49.9473 39.5365C49.9482 39.5242 49.9482 39.5119 49.9473 39.4996V39.5074Z" fill="#FAFAFA"/>
<path d="M51.745 38.4036L51.7357 38.5296L50.9227 40.081L50.7363 40.0674L51.5362 38.5393L50.6766 38.4734L50.6523 38.7992L50.4827 38.7875L50.5181 38.3027L51.745 38.4036Z" fill="#FAFAFA"/>
<path d="M54.1337 38.5837L54.1244 38.7117L53.3114 40.2631L53.1249 40.2495L53.923 38.7214L53.0634 38.6555L53.041 38.9813L52.8713 38.9677L52.9049 38.4829L54.1337 38.5837Z" fill="#FAFAFA"/>
<path d="M55.6906 39.9648C55.67 40.2731 55.4053 40.4438 55.0062 40.4147C54.6072 40.3856 54.3741 40.1742 54.3965 39.8659C54.4028 39.7672 54.4411 39.6736 54.5051 39.6003C54.5691 39.5271 54.655 39.4785 54.7489 39.4626C54.6726 39.4319 54.608 39.376 54.5652 39.3035C54.5224 39.231 54.5038 39.1458 54.5121 39.0611C54.5326 38.778 54.7769 38.619 55.1312 38.6442C55.4854 38.6694 55.7092 38.8672 55.6906 39.1503C55.6866 39.2358 55.6556 39.3176 55.6023 39.3828C55.549 39.4481 55.4764 39.4932 55.3959 39.511C55.4871 39.541 55.5658 39.6021 55.6193 39.6845C55.6728 39.7669 55.6979 39.8657 55.6906 39.9648ZM55.5153 39.9493C55.5302 39.734 55.3624 39.5867 55.0659 39.5615C54.7694 39.5362 54.5867 39.6584 54.5718 39.8737C54.5569 40.0889 54.7209 40.2363 55.0174 40.2615C55.3139 40.2867 55.5004 40.1645 55.5153 39.9493ZM55.0752 39.4199C55.3363 39.4393 55.5004 39.3287 55.5134 39.1406C55.5265 38.9525 55.3698 38.811 55.12 38.7935C54.8701 38.7761 54.6986 38.8808 54.6855 39.0747C54.6725 39.2686 54.816 39.4024 55.0752 39.4199Z" fill="#FAFAFA"/>
<path d="M57.3389 39.6876C57.2978 40.2791 56.9659 40.5641 56.511 40.5292C56.373 40.5235 56.2387 40.4807 56.1213 40.4051L56.1996 40.2655C56.2945 40.3321 56.4058 40.3691 56.5203 40.3722C56.8802 40.3993 57.1282 40.1782 57.1617 39.7031V39.5616C57.107 39.6544 57.0273 39.7285 56.9325 39.7746C56.8378 39.8208 56.732 39.8371 56.6284 39.8214C56.4942 39.8272 56.3633 39.7774 56.2643 39.6828C56.1654 39.5883 56.1066 39.4568 56.1008 39.3172C56.0989 39.2972 56.0989 39.2771 56.1008 39.2571C56.1127 39.1145 56.178 38.9826 56.2826 38.8897C56.3873 38.7968 56.5229 38.7505 56.6601 38.7607H56.703C57.1636 38.7995 57.3818 39.1388 57.3389 39.6876ZM57.1263 39.323C57.1394 39.1291 56.9995 38.9352 56.7105 38.9177C56.6131 38.9003 56.513 38.9238 56.4322 38.9831C56.3515 39.0423 56.2966 39.1325 56.2798 39.2338C56.279 39.2442 56.279 39.2545 56.2798 39.2649C56.263 39.4937 56.4159 39.6527 56.6732 39.6721C56.7738 39.6933 56.8784 39.6721 56.964 39.6132C57.0497 39.5543 57.1094 39.4625 57.13 39.3579V39.323H57.1263Z" fill="#FAFAFA"/>
<path d="M49.2533 41.2613L49.2004 42.0176L62.5997 43.0311L62.6525 42.2749L49.2533 41.2613Z" fill="#FAFAFA"/>
<path d="M55.6769 43.2657L55.624 44.022L62.4956 44.5418L62.5485 43.7855L55.6769 43.2657Z" fill="#FAFAFA"/>
<path d="M36.3922 32.3153L36.2206 34.7638C36.1834 35.2937 36.5663 35.7545 37.0757 35.7931L40.8527 36.0795C41.3622 36.1181 41.8053 35.7199 41.8424 35.1901L42.014 32.7416C42.0512 32.2118 41.6683 31.751 41.1589 31.7123L37.3819 31.4259C36.8724 31.3873 36.4294 31.7855 36.3922 32.3153Z" fill="#455A64"/>
<path d="M36.2407 34.5118L36.2612 34.2326L39.1551 34.4517C39.2346 34.4603 39.3149 34.4524 39.3914 34.4287C39.468 34.4049 39.5393 34.3658 39.6013 34.3134C39.6633 34.261 39.7147 34.1964 39.7527 34.1233C39.7907 34.0502 39.8145 33.9701 39.8227 33.8874C39.8309 33.8048 39.8233 33.7213 39.8005 33.6417C39.7777 33.5621 39.74 33.4879 39.6896 33.4234C39.6392 33.359 39.5771 33.3055 39.5069 33.2659C39.4366 33.2264 39.3595 33.2017 39.2801 33.1932H39.2521L36.3582 32.9741L36.3768 32.6929L39.2726 32.912C39.4991 32.9371 39.7073 33.0527 39.8534 33.2345C39.9995 33.4163 40.0719 33.6499 40.0555 33.8862C40.039 34.1225 39.9349 34.3428 39.7652 34.5008C39.5955 34.6588 39.3734 34.742 39.1458 34.7329L36.2407 34.5118Z" fill="#FF725E"/>
<path d="M39.9491 33.7333L39.9292 34.0137L41.9152 34.1661L41.9351 33.8857L39.9491 33.7333Z" fill="#FF725E"/>
<path d="M37.3753 27.8067L37.2849 29.0967L51.744 30.193L51.8344 28.903L37.3753 27.8067Z" fill="#FAFAFA"/>
<path d="M70.8534 24.4102C70.4674 25.0792 70.5066 25.9189 70.6147 26.6926C70.7229 27.4664 70.8907 28.2556 70.7248 29.0197C70.6147 29.5219 70.3518 30.0242 70.4786 30.5226C70.5625 30.8774 70.818 31.1567 70.9448 31.4922C71.1312 31.977 71.025 32.5161 70.9634 33.0319C70.9019 33.5477 70.9056 34.1237 71.2338 34.5135C71.6421 34.9983 72.3936 34.9769 72.953 34.7074C73.5124 34.4378 73.9561 33.9588 74.4745 33.6078C74.9929 33.2568 75.6679 33.0261 76.2254 33.3053C76.4827 33.4333 76.7046 33.6621 76.988 33.6932C77.3852 33.7242 77.6984 33.3461 78.0826 33.2355C78.4126 33.1424 78.765 33.2568 79.1044 33.2161C79.7962 33.1366 80.3071 32.3609 80.2101 31.6454C80.1454 31.288 79.9758 30.9602 79.7247 30.7071C79.4737 30.4539 79.1534 30.2879 78.8079 30.2317C78.5152 30.1813 78.1627 30.1735 78.0024 29.9137C77.7637 29.5258 78.1888 29.0391 78.1087 28.5911C78.0565 28.2692 77.7618 28.054 77.4728 27.9221C77.1838 27.7902 76.865 27.703 76.6412 27.4741C76.2403 27.0669 76.2851 26.3998 76.162 25.8297C75.9588 24.8911 75.1141 22.9694 73.2756 22.7812" fill="#263238"/>
<path d="M70.0016 77.8163L70.037 76.4473L72.5039 76.4996L72.4722 78.5028H72.3193C71.6387 78.528 68.8529 78.5804 68.4036 78.4272C67.8964 78.2624 70.0016 77.8163 70.0016 77.8163Z" fill="#FF725E"/>
<path d="M71.5791 78.4622C71.6201 78.2472 71.7355 78.0554 71.9035 77.9231C72.069 77.7915 72.276 77.7292 72.4835 77.7486L72.4704 78.4642L71.5791 78.4622Z" fill="#FF725E"/>
<path d="M68.972 78.0703C68.972 78.0703 68.2262 78.2759 68.3231 78.4039C68.4201 78.5318 71.2282 78.5978 72.4719 78.5008V78.4446L69.1883 78.4058C69.1883 78.4058 69.1156 78.08 68.972 78.0703Z" fill="#FF725E"/>
<path d="M72.5075 78.4422H72.3435L71.8959 78.4537H70.4154C69.8374 78.4537 69.3134 78.421 68.9349 78.3998L68.4874 78.371L68.3662 78.3613H68.4874L68.9368 78.3787C69.3097 78.3941 69.8374 78.4133 70.4154 78.4249C70.9935 78.4364 71.5156 78.4383 71.8941 78.4364H72.5075V78.4422Z" fill="#263238"/>
<path d="M69.1849 78.4463C69.1666 78.3684 69.1397 78.2929 69.1047 78.2214C69.0617 78.155 69.0117 78.0938 68.9556 78.0391C69.0289 78.0749 69.09 78.133 69.131 78.2057C69.1719 78.2784 69.1907 78.3623 69.1849 78.4463Z" fill="#263238"/>
<path d="M69.9197 78.0763C69.8908 78.0464 69.8652 78.0132 69.8433 77.9774C69.8078 77.9192 69.7855 77.865 69.7929 77.8611C69.8004 77.8572 69.834 77.9018 69.8694 77.96C69.9048 78.0181 69.9272 78.0724 69.9197 78.0763Z" fill="#263238"/>
<path d="M70.121 77.9719C70.0899 77.9552 70.0611 77.9344 70.0352 77.9098C69.9923 77.8691 69.9644 77.8303 69.9699 77.8245C69.9755 77.8187 70.0147 77.8458 70.0557 77.8866C70.0968 77.9273 70.1266 77.9661 70.121 77.9719Z" fill="#263238"/>
<path d="M70.2515 77.7304C70.2515 77.7401 70.1937 77.7458 70.1228 77.7458C70.0519 77.7458 69.9941 77.7458 69.9941 77.7285C70.0354 77.7135 70.0795 77.7089 70.1228 77.7151C70.1663 77.7105 70.2102 77.7158 70.2515 77.7304Z" fill="#263238"/>
<path d="M70.2982 77.5623C70.2555 77.5907 70.2054 77.6048 70.1546 77.6027C70.1042 77.6109 70.0525 77.6022 70.0073 77.5776C70.0557 77.5738 70.1044 77.5738 70.1528 77.5776C70.2004 77.566 70.2493 77.5608 70.2982 77.5623Z" fill="#263238"/>
<path d="M69.832 77.8509C69.7796 77.8606 69.726 77.8606 69.6735 77.8509C69.6165 77.8417 69.5604 77.8274 69.5057 77.8082C69.4728 77.7972 69.4409 77.7829 69.4106 77.7655C69.3922 77.7533 69.3783 77.7348 69.3715 77.7132C69.3695 77.7008 69.3709 77.688 69.3755 77.6764C69.3801 77.6647 69.3878 77.6546 69.3976 77.6472C69.4589 77.6181 69.5279 77.6118 69.5932 77.6295C69.6584 77.6471 69.7158 77.6877 69.7556 77.7442C69.7799 77.7766 69.7965 77.8145 69.8041 77.8548V77.8994C69.7894 77.8482 69.7661 77.8003 69.7351 77.7578C69.7 77.7134 69.6534 77.6804 69.6008 77.6628C69.5707 77.6514 69.5387 77.6464 69.5066 77.648C69.4746 77.6497 69.4432 77.658 69.4144 77.6725C69.3882 77.6919 69.3976 77.7229 69.4255 77.7403C69.4539 77.7558 69.4832 77.7695 69.5132 77.7811C69.5658 77.8022 69.6201 77.8184 69.6754 77.8295C69.7279 77.8337 69.7802 77.8408 69.832 77.8509Z" fill="#263238"/>
<path d="M69.7984 77.8585C69.7796 77.8238 69.7743 77.7829 69.7834 77.7441C69.7889 77.6997 69.8056 77.6575 69.8319 77.622C69.8454 77.5973 69.8649 77.5768 69.8885 77.5625C69.9121 77.5481 69.9389 77.5406 69.9662 77.5405C69.9816 77.5455 69.9948 77.556 70.0034 77.5703C70.012 77.5845 70.0153 77.6015 70.0128 77.6181C70.0082 77.6437 69.9987 77.6681 69.9848 77.6898C69.9635 77.7261 69.9378 77.7593 69.9084 77.7887C69.8827 77.818 69.8507 77.8405 69.8151 77.8547C69.843 77.8294 69.8691 77.8022 69.8935 77.7732C69.9195 77.7439 69.9421 77.7113 69.9606 77.6763C69.983 77.6414 69.9997 77.5793 69.9606 77.5716C69.9214 77.5638 69.8785 77.6065 69.8543 77.6394C69.8306 77.6705 69.8146 77.7071 69.8077 77.7461C69.8018 77.7833 69.7987 77.8209 69.7984 77.8585Z" fill="#263238"/>
<path d="M72.4702 77.7405C72.4082 77.7343 72.3458 77.7343 72.2838 77.7405C72.1379 77.7541 71.9987 77.8105 71.8825 77.9032C71.7663 77.9959 71.6778 78.1211 71.6274 78.2641C71.5883 78.3727 71.5827 78.4464 71.5771 78.4464C71.5752 78.429 71.5752 78.4115 71.5771 78.3941C71.5997 78.2134 71.6827 78.0468 71.8115 77.9234C71.9404 77.8 72.1069 77.7277 72.2819 77.7192C72.3266 77.7153 72.3715 77.7153 72.4162 77.7192C72.435 77.724 72.4531 77.7312 72.4702 77.7405Z" fill="#263238"/>
<path d="M72.2353 76.668C72.2502 76.8433 72.2539 77.0195 72.2464 77.1954C72.2505 77.3708 72.2442 77.5463 72.2278 77.721C72.2079 77.3703 72.2079 77.0187 72.2278 76.668H72.2353Z" fill="#263238"/>
<path d="M71.2731 78.204C71.1544 78.2309 71.0327 78.2407 70.9114 78.2328C70.7904 78.2361 70.6695 78.2239 70.5515 78.1963C70.5515 78.1963 70.7137 78.1963 70.9133 78.1963C71.1128 78.1963 71.2713 78.204 71.2731 78.204Z" fill="#263238"/>
<path d="M71.756 78.216C71.7466 78.2404 71.736 78.2644 71.7243 78.2877C71.7056 78.3246 71.6982 78.3614 71.6888 78.3595C71.6795 78.3575 71.6776 78.3187 71.6982 78.2761C71.7187 78.2334 71.7504 78.2043 71.756 78.216Z" fill="#263238"/>
<path d="M71.9425 77.9826C71.9343 78.0044 71.9216 78.0241 71.9052 78.0403C71.8791 78.0654 71.8549 78.0827 71.8493 78.0769C71.8437 78.0711 71.8586 78.0442 71.8847 78.0191C71.9108 77.9941 71.9369 77.9768 71.9425 77.9826Z" fill="#263238"/>
<path d="M72.2054 77.8801C72.2054 77.8897 72.17 77.8801 72.1346 77.9012C72.0992 77.9224 72.0712 77.932 72.0656 77.9263C72.06 77.9205 72.0805 77.8858 72.1253 77.8704C72.17 77.855 72.2073 77.8724 72.2054 77.8801Z" fill="#263238"/>
<path d="M72.392 77.8334C72.3847 77.8463 72.3736 77.8564 72.3603 77.8623C72.3463 77.8666 72.3314 77.8666 72.3174 77.8623C72.324 77.8489 72.3354 77.8386 72.3491 77.8334C72.3696 77.8257 72.3882 77.8257 72.392 77.8334Z" fill="#263238"/>
<path d="M76.9995 77.8163L77.0349 76.4473L79.4999 76.4996L79.4682 78.5028H79.3153C78.6347 78.528 75.8508 78.5804 75.3996 78.4272C74.8943 78.2624 76.9995 77.8163 76.9995 77.8163Z" fill="#FF725E"/>
<path d="M78.575 78.462C78.6159 78.2466 78.7321 78.0545 78.9013 77.9229C79.0663 77.7904 79.2736 77.728 79.4812 77.7484L79.4663 78.464L78.575 78.462Z" fill="#FF725E"/>
<path d="M75.9702 78.0703C75.9702 78.0703 75.2243 78.2759 75.3194 78.4039C75.4145 78.5318 78.2245 78.5978 79.4682 78.5008V78.4446L76.1827 78.4058C76.1827 78.4058 76.1137 78.08 75.9702 78.0703Z" fill="#FF725E"/>
<path d="M79.5055 78.4422H79.3414L78.892 78.4537H77.4115C76.8335 78.4537 76.3095 78.421 75.9329 78.3998L75.4835 78.371L75.3623 78.3613H75.4854L75.9329 78.3787C76.3058 78.3941 76.8335 78.4133 77.4115 78.4249C77.9896 78.4364 78.5135 78.4383 78.892 78.4364H79.5055V78.4422Z" fill="#263238"/>
<path d="M76.1809 78.4463C76.1631 78.3684 76.1369 78.293 76.1025 78.2214C76.0595 78.155 76.0095 78.0938 75.9534 78.0391C76.0265 78.075 76.0874 78.1331 76.128 78.2059C76.1687 78.2786 76.1871 78.3624 76.1809 78.4463Z" fill="#263238"/>
<path d="M76.9173 78.0763C76.8887 78.0466 76.8637 78.0134 76.8427 77.9774C76.8092 77.9192 76.7849 77.865 76.7924 77.8611C76.7998 77.8572 76.8334 77.9018 76.867 77.96C76.8885 77.9963 76.9055 78.0354 76.9173 78.0763Z" fill="#263238"/>
<path d="M77.1188 77.9719C77.0874 77.9558 77.0585 77.9348 77.033 77.9098C76.992 77.8691 76.9621 77.8303 76.9677 77.8245C76.9733 77.8187 77.0106 77.8458 77.0535 77.8866C77.0964 77.9273 77.1244 77.9661 77.1188 77.9719Z" fill="#263238"/>
<path d="M77.2495 77.7304C77.2495 77.7401 77.1917 77.7458 77.1208 77.7458C77.05 77.7458 76.9922 77.7458 76.9922 77.7285C77.0334 77.7135 77.0775 77.7089 77.1208 77.7151C77.1643 77.7105 77.2082 77.7158 77.2495 77.7304Z" fill="#263238"/>
<path d="M77.2903 77.5623C77.2466 77.5899 77.1961 77.604 77.1449 77.6027C77.0944 77.611 77.0428 77.6022 76.9976 77.5777C77.046 77.5739 77.0946 77.5739 77.143 77.5777C77.1912 77.5659 77.2408 77.5607 77.2903 77.5623Z" fill="#263238"/>
<path d="M76.837 77.8509C76.7846 77.8606 76.7309 77.8606 76.6785 77.8509C76.6215 77.8417 76.5653 77.8274 76.5107 77.8082C76.4768 77.798 76.4443 77.7837 76.4137 77.7655C76.3952 77.7537 76.3819 77.735 76.3764 77.7132C76.3744 77.7009 76.3757 77.6884 76.3799 77.6768C76.3842 77.6652 76.3913 77.655 76.4006 77.6472C76.4619 77.6181 76.531 77.6118 76.5962 77.6295C76.6615 77.6471 76.7188 77.6877 76.7587 77.7442C76.7828 77.7769 76.7999 77.8146 76.809 77.8548C76.8127 77.8694 76.8127 77.8847 76.809 77.8994C76.7937 77.8481 76.7697 77.8002 76.7381 77.7578C76.7041 77.7131 76.658 77.6799 76.6058 77.6628C76.5448 77.6406 76.4779 77.6441 76.4193 77.6725C76.395 77.6919 76.4044 77.7229 76.4305 77.7403C76.4585 77.7578 76.4886 77.7715 76.52 77.7811C76.5726 77.8022 76.6269 77.8184 76.6822 77.8295C76.7754 77.8451 76.837 77.8451 76.837 77.8509Z" fill="#263238"/>
<path d="M76.7963 77.8586C76.7769 77.824 76.7709 77.7831 76.7795 77.7442C76.7854 77.7008 76.8014 77.6595 76.8261 77.6239C76.84 77.6 76.8593 77.5801 76.8824 77.5659C76.9055 77.5516 76.9316 77.5436 76.9585 77.5425C76.9745 77.5466 76.9884 77.5569 76.9974 77.5713C77.0064 77.5857 77.0098 77.6031 77.007 77.62C77.0025 77.6461 76.9923 77.6706 76.9771 77.6918C76.9564 77.7285 76.9307 77.7618 76.9007 77.7907C76.876 77.8203 76.8446 77.8429 76.8093 77.8566C76.8362 77.8309 76.8617 77.8038 76.8858 77.7752C76.9118 77.7454 76.935 77.7129 76.9547 77.6782C76.9771 77.6433 76.992 77.5813 76.9547 77.5735C76.9175 77.5658 76.8746 77.6084 76.8485 77.6414C76.8266 77.6736 76.8108 77.7097 76.8018 77.748C76.7963 77.7846 76.7944 77.8216 76.7963 77.8586Z" fill="#263238"/>
<path d="M79.468 77.7405C79.406 77.7344 79.3435 77.7344 79.2815 77.7405C79.1357 77.7543 78.9966 77.8108 78.8804 77.9035C78.7643 77.9962 78.6757 78.1212 78.6252 78.2641C78.586 78.3727 78.5804 78.4464 78.5748 78.4464C78.5711 78.4292 78.5711 78.4113 78.5748 78.3941C78.5801 78.3472 78.5901 78.301 78.6047 78.2564C78.6511 78.1063 78.7404 77.9745 78.8606 77.8786C78.9809 77.7826 79.1264 77.727 79.2778 77.7192C79.3231 77.7153 79.3686 77.7153 79.4139 77.7192C79.4331 77.7225 79.4515 77.7298 79.468 77.7405Z" fill="#263238"/>
<path d="M79.2334 76.668C79.2533 77.0187 79.2533 77.3703 79.2334 77.721C79.2185 77.5462 79.2148 77.3707 79.2222 77.1954C79.2157 77.0195 79.2194 76.8434 79.2334 76.668Z" fill="#263238"/>
<path d="M78.2695 78.204C78.1515 78.2309 78.0303 78.2407 77.9097 78.2328C77.7887 78.2371 77.6677 78.2248 77.5498 78.1963C77.5498 78.1963 77.712 78.1963 77.9097 78.1963C78.1073 78.1963 78.2695 78.204 78.2695 78.204Z" fill="#263238"/>
<path d="M78.752 78.216C78.752 78.216 78.739 78.2509 78.7222 78.2877C78.7054 78.3246 78.6942 78.3614 78.6867 78.3595C78.6793 78.3575 78.6756 78.3187 78.6867 78.2761C78.6979 78.2334 78.7483 78.2043 78.752 78.216Z" fill="#263238"/>
<path d="M78.9404 77.9826C78.9322 78.0044 78.9194 78.0241 78.9031 78.0403C78.877 78.0654 78.8509 78.0827 78.8453 78.0769C78.8397 78.0711 78.8565 78.0442 78.8826 78.0191C78.9087 77.9941 78.9329 77.9768 78.9404 77.9826Z" fill="#263238"/>
<path d="M79.2016 77.8801C79.2016 77.8897 79.168 77.8801 79.1307 77.9012C79.0934 77.9224 79.0692 77.932 79.0617 77.9263C79.0543 77.9205 79.0766 77.8858 79.1214 77.8704C79.1661 77.855 79.2053 77.8724 79.2016 77.8801Z" fill="#263238"/>
<path d="M79.3878 77.8334C79.3805 77.8463 79.3694 77.8564 79.3561 77.8623C79.3421 77.8665 79.3272 77.8665 79.3132 77.8623C79.3132 77.8623 79.3263 77.8411 79.3468 77.8334C79.3673 77.8257 79.386 77.8257 79.3878 77.8334Z" fill="#263238"/>
<path d="M69.5035 42.6294L68.3213 60.9568V77.4847H73.0462C73.0462 77.4847 73.2458 63.2315 73.1208 62.2988C73.1208 62.2988 73.8928 48.0223 73.9804 48.2259C74.1669 48.6429 74.1557 60.7784 74.4205 62.2813C74.6852 63.7842 75.9122 77.4847 75.9122 77.4847H80.46L78.931 61.7771C78.8993 59.8845 78.4313 43.2635 78.4313 43.2635L69.5035 42.6294Z" fill="#263238"/>
<path d="M80.3574 76.5463C80.306 76.5846 80.2452 76.6068 80.1821 76.6103C80.0113 76.626 79.8394 76.5967 79.6824 76.525C79.4644 76.4128 79.2348 76.3269 78.9981 76.269C78.7314 76.2283 78.4536 76.3737 78.1888 76.558C77.9453 76.7578 77.6597 76.8948 77.3554 76.9574C77.1031 76.9823 76.8486 76.9499 76.6095 76.8624C76.4505 76.8075 76.2949 76.7428 76.1434 76.6685C76.0861 76.6456 76.0326 76.6136 75.9849 76.5735C75.9849 76.556 76.2291 76.6743 76.6282 76.7984C76.8598 76.8719 77.1034 76.8956 77.3442 76.8682C77.6337 76.8047 77.905 76.6719 78.1366 76.4804C78.2692 76.3872 78.4104 76.308 78.558 76.2438C78.7013 76.185 78.8565 76.165 79.0093 76.1856C79.2545 76.245 79.4914 76.3369 79.7141 76.459C79.8607 76.5322 80.0214 76.57 80.184 76.5696C80.294 76.5657 80.3537 76.5366 80.3574 76.5463Z" fill="#455A64"/>
<path d="M73.0858 76.4316C73.0391 76.3858 72.9893 76.3437 72.9367 76.3055C72.7853 76.2175 72.6083 76.1899 72.4388 76.228C72.1875 76.3018 71.9521 76.4249 71.7452 76.5906C71.6126 76.6837 71.4714 76.763 71.3238 76.8272C71.1592 76.8975 70.9793 76.9197 70.8035 76.8912C70.4455 76.8272 70.1621 76.6332 69.8712 76.5673C69.6177 76.5108 69.3545 76.5229 69.1067 76.6022C68.6779 76.736 68.4262 76.8737 68.4187 76.8543C68.4711 76.8116 68.5288 76.7764 68.5902 76.7496C68.7504 76.6637 68.9169 76.5911 69.0881 76.5324C69.3464 76.4394 69.6238 76.42 69.8918 76.4762C70.1957 76.544 70.4828 76.736 70.811 76.7923C71.1392 76.8485 71.4394 76.672 71.6874 76.5111C71.905 76.3435 72.153 76.2235 72.4164 76.1581C72.6017 76.1232 72.7928 76.1642 72.9497 76.2726C73.0107 76.3086 73.0585 76.3644 73.0858 76.4316Z" fill="#455A64"/>
<path d="M78.1126 46.4304C78.0301 46.4866 77.9351 46.5199 77.8367 46.5273C77.6019 46.5639 77.3623 46.5482 77.1338 46.4814C76.9053 46.4145 76.693 46.298 76.5109 46.1395C76.3729 46.0173 76.3114 45.9184 76.3245 45.9106C76.5662 46.1319 76.8531 46.2931 77.1635 46.3821C77.474 46.4711 77.7998 46.4856 78.1164 46.4245L78.1126 46.4304Z" fill="#455A64"/>
<path d="M70.2681 45.7148C70.2793 45.7148 70.2793 45.8137 70.2308 45.9572C70.1651 46.1451 70.0556 46.313 69.912 46.4459C69.7677 46.5782 69.5951 46.6727 69.4085 46.7213C69.265 46.7542 69.1736 46.7426 69.1736 46.731C69.4239 46.672 69.6556 46.5477 69.8471 46.37C70.0386 46.1923 70.1834 45.9668 70.2681 45.7148Z" fill="#455A64"/>
<path d="M59.1007 38.9602L58.9777 40.7055L58.8061 40.6938L58.9161 39.1134L58.5227 39.0824L58.5339 38.9233L59.1007 38.9602Z" fill="#FAFAFA"/>
<path d="M60.7102 40.6703L60.699 40.8293L59.5261 40.7421V40.6141L60.272 39.9586C60.4734 39.7802 60.5181 39.6658 60.5274 39.5456C60.5405 39.3517 60.4137 39.2101 60.1545 39.1907C60.0697 39.1792 59.9836 39.1875 59.9023 39.215C59.821 39.2425 59.7466 39.2885 59.6846 39.3497L59.5765 39.2256C59.6572 39.1467 59.7538 39.0875 59.8593 39.0523C59.9647 39.0171 60.0764 39.0067 60.1862 39.022C60.5256 39.0472 60.7288 39.2431 60.7083 39.5339C60.6971 39.7007 60.6356 39.8461 60.395 40.0575L59.7872 40.5966L60.7102 40.6703Z" fill="#FAFAFA"/>
<path d="M62.2334 40.4456C62.2129 40.7345 61.9948 40.9439 61.592 40.9129C61.3701 40.9051 61.1597 40.8086 61.0046 40.6434L61.0979 40.5076C61.1628 40.5803 61.2408 40.6389 61.3275 40.6802C61.4142 40.7214 61.5079 40.7445 61.6032 40.7481C61.8792 40.7694 62.0414 40.6472 62.0582 40.432C62.0749 40.2167 61.9407 40.0752 61.6293 40.0441H61.51L61.5193 39.9123L62.0265 39.3441L61.1706 39.2801L61.1818 39.1211L62.2558 39.2025V39.3286L61.7393 39.9103C62.088 39.9569 62.2539 40.1663 62.2334 40.4456Z" fill="#FAFAFA"/>
<path d="M71.0437 23.3867C70.8771 23.5629 70.7488 23.7742 70.6674 24.0064C70.586 24.2385 70.5534 24.4862 70.5719 24.7325C70.6133 25.2253 70.7674 25.7007 71.0213 26.119" fill="#263238"/>
<path d="M75.1141 30.9671L75.3677 24.8915L73.0239 23.0454L70.8945 24.1275C70.8945 24.1275 70.8237 26.9083 70.8945 28.1145C70.9654 29.3207 72.1345 29.4487 72.1345 29.4487C72.1345 29.4487 72.1009 30.1138 72.0636 30.8061C72.0431 31.2222 72.1802 31.63 72.4454 31.9421C72.7107 32.2543 73.0831 32.4459 73.4826 32.4758C73.8866 32.5051 74.2853 32.3663 74.5909 32.0899C74.8966 31.8135 75.0841 31.4222 75.1123 31.002C75.1123 30.9903 75.1141 30.9787 75.1141 30.9671Z" fill="#FFBE9D"/>
<path d="M71.2751 26.1556C71.2751 26.1863 71.2839 26.2163 71.3003 26.2418C71.3167 26.2673 71.34 26.2872 71.3672 26.299C71.3945 26.3107 71.4245 26.3138 71.4534 26.3078C71.4824 26.3018 71.5089 26.287 71.5298 26.2653C71.5507 26.2436 71.5649 26.216 71.5706 26.1859C71.5764 26.1558 71.5734 26.1246 71.5621 26.0963C71.5508 26.0679 71.5317 26.0437 71.5072 26.0266C71.4827 26.0096 71.4538 26.0005 71.4243 26.0005C71.4047 26.0005 71.3853 26.0045 71.3672 26.0123C71.3491 26.0201 71.3327 26.0315 71.3188 26.0459C71.305 26.0603 71.294 26.0774 71.2865 26.0963C71.279 26.1151 71.2751 26.1353 71.2751 26.1556Z" fill="#263238"/>
<path d="M70.9841 25.9875C71.0027 26.0069 71.1127 25.91 71.2712 25.9003C71.4297 25.8906 71.5509 25.972 71.5677 25.9507C71.5845 25.9293 71.5565 25.9041 71.5043 25.8654C71.4336 25.8175 71.3498 25.795 71.2656 25.8014C71.1817 25.8055 71.1015 25.8389 71.0381 25.8964C70.9897 25.939 70.9747 25.9778 70.9841 25.9875Z" fill="#263238"/>
<path d="M73.0015 26.1556C73.0015 26.1962 73.017 26.2352 73.0446 26.2639C73.0722 26.2927 73.1097 26.3088 73.1488 26.3088C73.1783 26.3092 73.2072 26.3005 73.232 26.2837C73.2567 26.267 73.2761 26.243 73.2877 26.2148C73.2994 26.1866 73.3027 26.1555 73.2973 26.1253C73.2919 26.0951 73.278 26.0673 73.2574 26.0454C73.2368 26.0234 73.2104 26.0083 73.1816 26.0019C73.1527 25.9955 73.1227 25.9982 73.0953 26.0096C73.0679 26.021 73.0443 26.0406 73.0276 26.0659C73.0109 26.0912 73.0018 26.121 73.0015 26.1517V26.1556Z" fill="#263238"/>
<path d="M72.7556 25.9873C72.7742 26.0067 72.8842 25.9097 73.0427 25.9C73.2012 25.8903 73.3224 25.9718 73.3392 25.9505C73.356 25.9291 73.328 25.9039 73.2758 25.8651C73.2047 25.818 73.1211 25.7956 73.0369 25.8011C72.9528 25.8067 72.8725 25.84 72.8078 25.8962C72.7612 25.9388 72.7462 25.9776 72.7556 25.9873Z" fill="#263238"/>
<path d="M72.7051 27.5483C72.4611 27.6765 72.2013 27.7691 71.9331 27.8237C71.9923 27.907 72.0764 27.9676 72.1722 27.996C72.268 28.0244 72.3701 28.0191 72.4627 27.9808C72.5047 27.9712 72.5446 27.953 72.5799 27.9272C72.6152 27.9015 72.6452 27.8688 72.6683 27.8309C72.6913 27.7931 72.7069 27.7508 72.7142 27.7066C72.7215 27.6625 72.7203 27.6172 72.7107 27.5736L72.7051 27.5483Z" fill="#FAFAFA"/>
<path d="M72.1348 29.4483C72.6858 29.4245 73.2189 29.2375 73.6712 28.9092C73.6712 28.9092 73.3225 29.7954 72.1609 29.745L72.1348 29.4483Z" fill="#EB996E"/>
<path d="M72.1774 27.3963C72.0919 27.3747 72.0043 27.3637 71.9164 27.3634C71.8754 27.3634 71.8362 27.3634 71.8269 27.3246C71.8218 27.2778 71.8302 27.2306 71.8511 27.1888C71.8847 27.0803 71.922 26.9658 71.9593 26.8456C72.0357 26.5993 72.101 26.3783 72.1457 26.2154C72.1771 26.1295 72.1965 26.0394 72.2035 25.9478C72.1608 26.0275 72.127 26.1121 72.1028 26.1999C72.0469 26.3589 71.9742 26.5877 71.8977 26.8243C71.8623 26.9464 71.8269 27.0609 71.7933 27.1714C71.7707 27.2258 71.7655 27.2863 71.7784 27.344C71.7841 27.3589 71.7931 27.3722 71.8048 27.3827C71.8165 27.3931 71.8305 27.4005 71.8455 27.4041C71.8684 27.408 71.8917 27.408 71.9145 27.4041C72.0021 27.4141 72.0905 27.4115 72.1774 27.3963Z" fill="#263238"/>
<path d="M75.1965 27.0518C75.1782 26.8509 75.1998 26.6483 75.2599 26.4565C75.29 26.3607 75.3446 26.2752 75.4178 26.2093C75.4911 26.1434 75.5802 26.0994 75.6757 26.0822C75.7862 26.0761 75.8951 26.1121 75.982 26.1835C76.0688 26.2549 76.1276 26.3568 76.1474 26.47C76.1612 26.5858 76.1411 26.7031 76.0899 26.8068C76.0387 26.9106 75.9587 26.9959 75.8603 27.0518C75.7609 27.1048 75.6513 27.1338 75.5396 27.1368C75.428 27.1399 75.3171 27.1168 75.2151 27.0692" fill="#FFBE9D"/>
<path d="M75.5357 26.875C75.5357 26.8614 75.5972 26.8925 75.6793 26.8653C75.7303 26.847 75.7746 26.8124 75.8057 26.7664C75.8368 26.7205 75.8533 26.6655 75.8527 26.6093C75.8578 26.581 75.8567 26.5519 75.8496 26.524C75.8425 26.4962 75.8296 26.4704 75.8117 26.4484C75.7754 26.4198 75.7303 26.406 75.6849 26.4096C75.5991 26.4096 75.5376 26.4406 75.532 26.427C75.5264 26.4135 75.5711 26.3708 75.6755 26.3398C75.7075 26.332 75.7406 26.3314 75.7728 26.3381C75.805 26.3448 75.8354 26.3586 75.862 26.3786C75.8924 26.409 75.9156 26.4464 75.9295 26.4879C75.9434 26.5293 75.9478 26.5736 75.9422 26.6171C75.9374 26.6997 75.9073 26.7785 75.8564 26.842C75.8121 26.8939 75.7511 26.927 75.6849 26.9351C75.5786 26.9467 75.5245 26.8828 75.5357 26.875Z" fill="#EB996E"/>
<path d="M70.9114 23.5049C70.3968 24.17 71.0829 24.5889 71.4242 24.8623C71.6871 25.0756 72.4628 25.638 73.1434 25.3723C72.9028 25.0369 72.6287 24.8895 72.5224 24.5695C72.8003 24.9767 73.093 25.2851 73.5704 25.3452C73.4753 25.0562 73.341 24.4687 73.4436 24.4454C73.5704 25.5934 74.6052 26.5591 75.3175 26.1907C75.4508 25.8295 75.5003 25.4408 75.4621 25.056C75.4238 24.6713 75.2989 24.3013 75.0975 23.9761C74.8908 23.6546 74.6221 23.3812 74.3085 23.1732C73.9949 22.9653 73.6433 22.8273 73.2757 22.768C72.8538 22.7012 72.4228 22.7327 72.014 22.8602C71.6051 22.9876 71.2285 23.2078 70.9114 23.5049Z" fill="#263238"/>
<path d="M75.7985 27.1618C75.7985 27.1501 75.8862 27.2374 75.8507 27.4022C75.8397 27.4498 75.8185 27.4941 75.7888 27.532C75.7591 27.5699 75.7217 27.6005 75.6792 27.6214C75.6261 27.6466 75.5681 27.6585 75.5098 27.6561C75.4515 27.6537 75.3946 27.6372 75.3435 27.6078C75.2936 27.5763 75.251 27.5338 75.2187 27.4831C75.1865 27.4325 75.1654 27.3751 75.1571 27.315C75.1457 27.2183 75.1696 27.1207 75.2242 27.0415C75.3174 26.9097 75.4219 26.8961 75.4219 26.9058C75.3665 26.9558 75.3193 27.0147 75.282 27.0803C75.2463 27.1477 75.2338 27.2257 75.2466 27.3014C75.2536 27.3461 75.2698 27.3888 75.2939 27.4266C75.318 27.4644 75.3495 27.4964 75.3864 27.5205C75.4243 27.5425 75.4663 27.5554 75.5095 27.5584C75.5527 27.5615 75.596 27.5545 75.6363 27.538C75.6695 27.5238 75.6994 27.5024 75.7242 27.4754C75.7489 27.4483 75.7679 27.4161 75.7799 27.3809C75.8 27.3099 75.8063 27.2354 75.7985 27.1618Z" fill="#FF725E"/>
<path d="M67.7377 37.1529L69.4867 36.7747L70.0181 39.8348C69.569 41.4032 69.1956 42.9941 68.8994 44.6013L73.0015 47.2639L73.6336 46.015L74.6461 47.0157L79.0112 44.6013C78.4723 41.6925 77.1112 40.9324 77.1112 40.4592C77.1112 39.1018 76.9247 40.4204 78.0192 35.9234C79.1138 31.4264 75.1197 30.9668 75.1197 30.9668C75.1197 30.9668 75.2092 31.5951 72.0319 30.9959C70.8684 30.7768 66.2236 33.3132 66.2236 33.3132L67.7377 37.1529Z" fill="#FF725E"/>
<path d="M72.0264 30.9963C72.0264 30.9963 71.9891 34.324 72.7518 34.099C73.5144 33.8741 75.0508 32.4527 75.1142 30.9595L72.0264 30.9963Z" fill="#FFBE9D"/>
<path d="M72.2203 36.8274C72.2112 36.4332 72.233 36.0389 72.2855 35.6484C72.3075 35.2563 72.3624 34.867 72.4496 34.4849C72.459 34.8798 72.4365 35.2748 72.3825 35.6658C72.3602 36.0571 72.3059 36.4457 72.2203 36.8274Z" fill="#263238"/>
<path d="M72.707 36.5577C72.6511 36.2464 72.6268 35.9299 72.6343 35.6133C72.6107 35.2972 72.6188 34.9794 72.6585 34.665C72.7144 34.977 72.7388 35.2942 72.7313 35.6114C72.7568 35.9268 72.7487 36.2442 72.707 36.5577Z" fill="#263238"/>
<path d="M72.0229 37.1532C71.9968 37.1532 71.9781 37.0678 72.0229 36.9728C72.0676 36.8778 72.1403 36.8351 72.1571 36.8565C72.1739 36.8778 72.1441 36.9398 72.1124 37.0135C72.0807 37.0872 72.0508 37.1551 72.0229 37.1532Z" fill="#263238"/>
<path d="M72.1274 37.1528C72.1012 37.1528 72.0919 37.083 72.105 37.0073C72.118 36.9317 72.1535 36.8774 72.1796 36.8832C72.2057 36.8891 72.215 36.9531 72.2019 37.0287C72.1889 37.1043 72.1535 37.1586 72.1274 37.1528Z" fill="#263238"/>
<path d="M72.2259 37.1548C72.1998 37.1548 72.1718 37.0986 72.1644 37.023C72.1569 36.9473 72.1737 36.8853 72.2017 36.8833C72.2296 36.8814 72.2557 36.9396 72.2613 37.0133C72.2669 37.087 72.2557 37.151 72.2259 37.1548Z" fill="#263238"/>
<path d="M72.3883 37.2072C72.3603 37.2072 72.3398 37.1103 72.2914 37.0133C72.2429 36.9164 72.1869 36.831 72.2056 36.8078C72.2242 36.7845 72.3231 36.8427 72.3809 36.9706C72.4387 37.0986 72.4144 37.2092 72.3883 37.2072Z" fill="#263238"/>
<path d="M72.7255 36.8566C72.7012 36.8663 72.6509 36.7829 72.6509 36.6627C72.6509 36.5424 72.7012 36.4688 72.7255 36.4688C72.7497 36.4688 72.7478 36.5599 72.7478 36.6627C72.7478 36.7654 72.7516 36.8469 72.7255 36.8566Z" fill="#263238"/>
<path d="M72.8264 36.8021C72.8003 36.8021 72.7723 36.7401 72.7648 36.6586C72.7574 36.5772 72.7648 36.5074 72.8003 36.5054C72.8357 36.5035 72.8543 36.5675 72.8618 36.6489C72.8693 36.7304 72.8525 36.8002 72.8264 36.8021Z" fill="#263238"/>
<path d="M72.9846 36.7746C72.9641 36.7921 72.9063 36.7513 72.856 36.6835C72.8056 36.6156 72.7814 36.5477 72.8038 36.5322C72.8262 36.5167 72.8821 36.5555 72.9324 36.6214C72.9828 36.6873 73.0014 36.7572 72.9846 36.7746Z" fill="#263238"/>
<path d="M73.0371 36.7206C73.0129 36.7323 72.9663 36.6818 72.9066 36.6275C72.8469 36.5732 72.7947 36.5325 72.8041 36.5054C72.8134 36.4782 72.8973 36.4821 72.9719 36.5519C73.0465 36.6217 73.0614 36.7051 73.0371 36.7206Z" fill="#263238"/>
<path d="M71.7934 31.3627C71.7934 31.3511 71.8493 31.322 71.9146 31.3841C71.9414 31.4168 71.9547 31.4592 71.9515 31.5021C71.9484 31.545 71.9291 31.5848 71.8978 31.6129C71.8824 31.6272 71.8645 31.6381 71.8449 31.645C71.8254 31.6519 71.8048 31.6546 71.7842 31.653C71.7637 31.6513 71.7436 31.6454 71.7253 31.6355C71.707 31.6256 71.6909 31.612 71.6778 31.5955C71.6687 31.5858 71.6611 31.5746 71.6554 31.5625C71.6467 31.5368 71.644 31.5093 71.6475 31.4823C71.6511 31.4553 71.6608 31.4296 71.6759 31.4073C71.73 31.3337 71.7952 31.3511 71.7915 31.3627C71.7682 31.3861 71.7493 31.4137 71.7356 31.4442C71.7169 31.4966 71.7356 31.5664 71.812 31.5567C71.8885 31.547 71.8941 31.4791 71.8642 31.4306C71.8344 31.3821 71.7952 31.3783 71.7934 31.3627Z" fill="#263238"/>
<path d="M71.8682 31.989C71.8514 32.0103 71.7992 31.989 71.7488 31.9618C71.6985 31.9347 71.6705 31.8765 71.6854 31.8532C71.7003 31.83 71.7544 31.8416 71.8047 31.8804C71.8551 31.9192 71.8831 31.9657 71.8682 31.989Z" fill="#263238"/>
<path d="M71.9164 32.121C71.9388 32.1383 71.9164 32.2057 71.8418 32.2346C71.7672 32.2635 71.7057 32.2346 71.7113 32.2057C71.7169 32.1768 71.7598 32.1614 71.8064 32.1422C71.853 32.1229 71.8959 32.1037 71.9164 32.121Z" fill="#263238"/>
<path d="M71.9202 32.4483C71.9407 32.4657 71.9202 32.5162 71.8922 32.5608C71.8643 32.6054 71.8102 32.6286 71.7897 32.6092C71.7692 32.5899 71.7804 32.5414 71.8177 32.4968C71.8549 32.4522 71.8978 32.4386 71.9202 32.4483Z" fill="#263238"/>
<path d="M71.8401 32.8037C71.8401 32.7921 71.9147 32.7649 72.0023 32.8483C72.0269 32.8727 72.0446 32.9038 72.0535 32.9379C72.0624 32.9721 72.0621 33.0082 72.0526 33.0422C72.0401 33.087 72.0142 33.1265 71.9787 33.1551C71.9432 33.1837 71.8999 33.1998 71.855 33.2012C71.8109 33.1978 71.7689 33.1798 71.7354 33.1498C71.7018 33.1197 71.6784 33.0793 71.6685 33.0344C71.6603 32.997 71.6641 32.9579 71.6793 32.9229C71.6944 32.8879 71.7201 32.859 71.7524 32.8405C71.8606 32.7785 71.9389 32.8405 71.9203 32.8502C71.8742 32.8552 71.83 32.8719 71.7916 32.8987C71.7751 32.9112 71.7627 32.9288 71.7563 32.949C71.75 32.9692 71.7499 32.9909 71.7562 33.0112C71.7639 33.0352 71.7782 33.0564 71.7975 33.0719C71.8168 33.0874 71.84 33.0967 71.8643 33.0984C71.8811 33.0975 71.8976 33.093 71.9128 33.0853C71.9279 33.0776 71.9414 33.0669 71.9526 33.0537C71.9637 33.0405 71.9721 33.0252 71.9775 33.0086C71.9828 32.9919 71.9849 32.9744 71.9837 32.9569C71.9818 32.9302 71.9728 32.9047 71.9575 32.8832C71.9016 32.827 71.8382 32.827 71.8401 32.8037Z" fill="#263238"/>
<path d="M72.0487 33.3677C72.0617 33.3929 72.0207 33.4395 71.976 33.4918C71.9312 33.5442 71.8939 33.5926 71.8678 33.583C71.8417 33.5733 71.8454 33.4957 71.9032 33.4259C71.961 33.3561 72.0375 33.3425 72.0487 33.3677Z" fill="#263238"/>
<path d="M72.1534 33.7185C72.1777 33.7282 72.174 33.8058 72.1162 33.8756C72.0584 33.9454 71.9838 33.959 71.9707 33.9357C71.9577 33.9125 71.9987 33.862 72.0434 33.8097C72.0882 33.7573 72.1273 33.7088 72.1534 33.7185Z" fill="#263238"/>
<path d="M72.2092 34.2866C72.1831 34.2866 72.1552 34.2245 72.1496 34.1411C72.144 34.0578 72.1496 33.9918 72.185 33.988C72.2204 33.9841 72.2391 34.05 72.2447 34.1334C72.2503 34.2168 72.2372 34.2846 72.2092 34.2866Z" fill="#263238"/>
<path d="M73.1152 34.377C73.1022 34.4001 73.05 34.3963 72.9996 34.377C72.9493 34.3578 72.9195 34.3039 72.9325 34.2789C72.9456 34.2539 72.9978 34.2596 73.0481 34.2789C73.0984 34.2981 73.1283 34.3424 73.1152 34.377Z" fill="#263238"/>
<path d="M73.4305 33.9902C73.4492 34.0096 73.4175 34.0736 73.3615 34.1337C73.3056 34.1938 73.2422 34.2268 73.2236 34.2074C73.2049 34.188 73.2347 34.124 73.2925 34.0639C73.3503 34.0038 73.41 33.9727 73.4305 33.9902Z" fill="#263238"/>
<path d="M73.6879 33.7729C73.6879 33.7574 73.7364 33.7496 73.8072 33.7516H73.8166L73.8296 33.7632C73.8461 33.7805 73.8584 33.8017 73.8652 33.825C73.872 33.8484 73.8732 33.8731 73.8688 33.897C73.8636 33.9275 73.8489 33.9554 73.827 33.9764C73.8051 33.9975 73.7772 34.0104 73.7476 34.0133C73.7159 34.0163 73.6842 34.0087 73.6571 33.9916C73.6299 33.9745 73.6087 33.9488 73.5965 33.9183C73.5867 33.8941 73.5844 33.8674 73.5897 33.8417C73.595 33.816 73.6078 33.7927 73.6264 33.7748C73.6879 33.7167 73.7457 33.7457 73.7382 33.7574C73.7308 33.769 73.7009 33.7768 73.6804 33.8194C73.675 33.8288 73.6721 33.8395 73.6721 33.8505C73.6721 33.8614 73.675 33.8721 73.6804 33.8815C73.6871 33.8919 73.6963 33.9003 73.7071 33.9058C73.7179 33.9112 73.73 33.9135 73.742 33.9125C73.7811 33.9125 73.7998 33.8408 73.7793 33.8156L73.8016 33.8272C73.7289 33.8078 73.686 33.7962 73.6879 33.7729Z" fill="#263238"/>
<path d="M73.9544 33.7204C73.9282 33.7204 73.9171 33.6487 73.932 33.575C73.9469 33.5013 73.9805 33.445 74.0066 33.4489C74.0327 33.4528 74.042 33.5207 74.0271 33.5944C74.0122 33.6681 73.9805 33.7262 73.9544 33.7204Z" fill="#263238"/>
<path d="M74.3628 33.422C74.3534 33.4473 74.2919 33.4434 74.2267 33.422C74.1614 33.4007 74.1185 33.3464 74.1297 33.3212C74.1409 33.296 74.2024 33.2999 74.2658 33.3212C74.3292 33.3425 74.3739 33.3968 74.3628 33.422Z" fill="#263238"/>
<path d="M74.4096 33.0538C74.4207 33.0538 74.4189 33.0887 74.4413 33.1139C74.4636 33.1391 74.4916 33.1449 74.5121 33.1139C74.5326 33.0829 74.5121 33.0596 74.4823 33.048C74.4603 33.0419 74.4371 33.0419 74.4151 33.048C74.404 33.048 74.4152 32.9937 74.4785 32.9801C74.4983 32.9762 74.5186 32.9778 74.5376 32.9846C74.5565 32.9914 74.5735 33.0032 74.5867 33.0189C74.6038 33.0396 74.614 33.0656 74.6157 33.0929C74.6173 33.1202 74.6104 33.1473 74.596 33.1701C74.5828 33.1939 74.5627 33.2127 74.5386 33.2239C74.5145 33.235 74.4876 33.2379 74.4618 33.2322C74.4423 33.2275 74.4245 33.2174 74.4101 33.2031C74.3957 33.1888 74.3852 33.1707 74.3797 33.1507C74.3611 33.0771 74.4002 33.0441 74.4096 33.0538Z" fill="#263238"/>
<path d="M74.6948 32.7469C74.6782 32.7441 74.6627 32.7367 74.6498 32.7255C74.6369 32.7143 74.6272 32.6997 74.6217 32.6832C74.6161 32.6667 74.615 32.6489 74.6183 32.6318C74.6217 32.6147 74.6294 32.5989 74.6407 32.5859C74.6594 32.5859 74.6985 32.6053 74.7135 32.6499C74.7284 32.6945 74.7191 32.7391 74.6948 32.7469Z" fill="#263238"/>
<path d="M74.9616 32.4758C74.9485 32.499 74.8963 32.4952 74.846 32.4641C74.7956 32.4331 74.7658 32.3904 74.7807 32.3672C74.7956 32.3439 74.8441 32.3478 74.8945 32.3769C74.9448 32.4059 74.9747 32.4506 74.9616 32.4758Z" fill="#263238"/>
<path d="M75.1444 32.0685C75.1556 32.0956 75.1108 32.1402 75.0474 32.1693C74.984 32.1984 74.9206 32.2023 74.9094 32.1693C74.8982 32.1363 74.943 32.0995 75.0064 32.0704C75.0273 32.0579 75.051 32.0511 75.0751 32.0508C75.0993 32.0505 75.1231 32.0565 75.1444 32.0685Z" fill="#263238"/>
<path d="M75.2281 31.5815C75.2281 31.5718 75.2635 31.535 75.3269 31.5699C75.3454 31.5805 75.3609 31.5959 75.372 31.6146C75.3831 31.6333 75.3894 31.6546 75.3903 31.6766C75.3902 31.7051 75.3819 31.733 75.3663 31.7565C75.3508 31.78 75.3288 31.7981 75.3032 31.8084C75.2776 31.8187 75.2495 31.8207 75.2228 31.8141C75.1961 31.8075 75.1719 31.7927 75.1535 31.7716C75.1399 31.7546 75.1308 31.7342 75.1272 31.7124C75.1236 31.6906 75.1256 31.6682 75.133 31.6475C75.1572 31.5796 75.2094 31.5757 75.2113 31.5893C75.2131 31.6029 75.1964 31.6242 75.2001 31.661C75.2038 31.6979 75.2262 31.7309 75.2672 31.7153C75.3082 31.6998 75.3082 31.661 75.284 31.6281C75.2598 31.5951 75.2392 31.5951 75.2281 31.5815Z" fill="#263238"/>
<path d="M75.4836 31.1569C75.4836 31.1839 75.4425 31.2185 75.3773 31.2339C75.312 31.2493 75.256 31.2339 75.2505 31.2128C75.2449 31.1916 75.2915 31.1512 75.3567 31.1358C75.422 31.1204 75.478 31.13 75.4836 31.1569Z" fill="#263238"/>
<path d="M75.2224 31.0149L75.325 30.9341L75.2224 31.0149Z" fill="#263238"/>
<path d="M66.7536 33.7806C66.7293 33.7806 66.72 33.7244 66.7368 33.6739C66.7536 33.6235 66.7853 33.5905 66.8095 33.5983C66.8338 33.6061 66.8431 33.6545 66.8282 33.705C66.8133 33.7554 66.7797 33.7961 66.7536 33.7806Z" fill="#263238"/>
<path d="M66.977 34.0618C66.977 34.0502 67.0106 34.0133 67.0777 34.0444C67.1008 34.055 67.1205 34.0724 67.1343 34.0944C67.1481 34.1165 67.1554 34.1422 67.1554 34.1685C67.1554 34.1948 67.1481 34.2205 67.1343 34.2425C67.1205 34.2645 67.1008 34.2819 67.0777 34.2926C67.0529 34.3067 67.0245 34.3124 66.9964 34.3089C66.9684 34.3054 66.942 34.2929 66.9211 34.2732C66.9057 34.2576 66.8942 34.2383 66.8877 34.217C66.8812 34.1957 66.8799 34.173 66.8838 34.151C66.8969 34.0754 66.9509 34.0638 66.9547 34.0754C66.9584 34.087 66.9435 34.1142 66.9547 34.153C66.9659 34.1917 66.992 34.2267 67.0386 34.2034C67.0852 34.1801 67.0759 34.1374 67.0386 34.1045C67.0013 34.0715 66.9826 34.0754 66.977 34.0618Z" fill="#263238"/>
<path d="M67.255 34.6951C67.2438 34.7202 67.186 34.7202 67.1245 34.6951C67.0629 34.6701 67.0238 34.6278 67.0331 34.6028C67.0424 34.5777 67.1021 34.5777 67.1636 34.6028C67.2251 34.6278 67.2643 34.6701 67.255 34.6951Z" fill="#263238"/>
<path d="M67.3241 35.0829C67.3148 35.1098 67.27 35.1175 67.2215 35.1021C67.173 35.0867 67.1413 35.0521 67.1488 35.0251C67.1562 34.9982 67.2029 34.9905 67.2514 35.0078C67.2998 35.0251 67.3315 35.0578 67.3241 35.0829Z" fill="#263238"/>
<path d="M67.4376 35.3477C67.4599 35.3612 67.4543 35.4175 67.4226 35.4718C67.3909 35.5261 67.3481 35.561 67.3257 35.5455C67.3033 35.5299 67.3089 35.4756 67.3387 35.4213C67.3475 35.4011 67.3613 35.3836 67.3786 35.3707C67.396 35.3577 67.4163 35.3498 67.4376 35.3477Z" fill="#263238"/>
<path d="M67.5047 35.6171C67.4917 35.6171 67.5364 35.5454 67.6315 35.5725C67.6588 35.5804 67.6838 35.5951 67.7043 35.6154C67.7248 35.6357 67.7402 35.6609 67.749 35.6889C67.7597 35.728 67.7557 35.7699 67.7376 35.8059C67.7196 35.842 67.689 35.8695 67.652 35.8828C67.6186 35.8969 67.5819 35.9005 67.5465 35.8933C67.5111 35.886 67.4784 35.8683 67.4525 35.8421C67.4317 35.8171 67.4202 35.7851 67.4202 35.7519C67.4202 35.7188 67.4317 35.6868 67.4525 35.6618C67.4679 35.6459 67.4887 35.637 67.5103 35.637C67.532 35.637 67.5528 35.6459 67.5681 35.6618C67.5886 35.687 67.5793 35.7064 67.5681 35.7064C67.5629 35.707 67.5576 35.7062 67.5527 35.7042C67.5478 35.7022 67.5435 35.6989 67.5402 35.6947C67.5366 35.6925 67.5326 35.6911 67.5284 35.6906C67.5242 35.6902 67.52 35.6907 67.5161 35.6922C67.5121 35.6937 67.5086 35.6961 67.5056 35.6992C67.5027 35.7023 67.5005 35.7061 67.4991 35.7102C67.4946 35.7222 67.4938 35.7354 67.4968 35.7479C67.4998 35.7604 67.5065 35.7717 67.5159 35.7801C67.5301 35.7906 67.5466 35.7971 67.5639 35.7992C67.5812 35.8012 67.5987 35.7986 67.6147 35.7917C67.6912 35.7626 67.6595 35.6734 67.6036 35.6443C67.5476 35.6152 67.514 35.6288 67.5047 35.6171Z" fill="#263238"/>
<path d="M67.7809 36.1229C67.7996 36.1423 67.7809 36.1869 67.7473 36.2218C67.7138 36.2567 67.6672 36.2644 67.6485 36.245C67.6299 36.2256 67.6485 36.1791 67.6821 36.1461C67.7156 36.1132 67.7567 36.0976 67.7809 36.1229Z" fill="#263238"/>
<path d="M67.8816 36.4563C67.9021 36.4757 67.8816 36.5242 67.8499 36.5649C67.8182 36.6056 67.766 36.625 67.7455 36.6056C67.725 36.5862 67.7455 36.5378 67.7791 36.497C67.8126 36.4563 67.863 36.4369 67.8816 36.4563Z" fill="#263238"/>
<path d="M69.7854 45.0919C69.7631 45.1055 69.7127 45.0609 69.6773 44.9911C69.6419 44.9213 69.6288 44.8554 69.6512 44.8418C69.6736 44.8282 69.7239 44.8728 69.7612 44.9426C69.7985 45.0124 69.8097 45.0784 69.7854 45.0919Z" fill="#263238"/>
<path d="M69.9473 45.0918C69.9231 45.1034 69.8783 45.0569 69.8485 44.9871C69.8187 44.9173 69.8149 44.8533 69.8485 44.8416C69.8821 44.83 69.9175 44.8765 69.9473 44.9463C69.9772 45.0162 69.9716 45.0801 69.9473 45.0918Z" fill="#263238"/>
<path d="M70.1769 45.2183V45.2804C70.1769 45.3095 70.2048 45.3211 70.2309 45.3056C70.257 45.2901 70.2552 45.2688 70.2309 45.2436C70.2067 45.2183 70.1881 45.2222 70.1806 45.2086C70.1731 45.1951 70.203 45.1602 70.2626 45.1796C70.2903 45.1889 70.3134 45.2092 70.327 45.236C70.3406 45.2628 70.3436 45.294 70.3354 45.3231C70.326 45.3524 70.3059 45.3768 70.2794 45.3909C70.2594 45.4061 70.2352 45.4142 70.2104 45.4142C70.1856 45.4142 70.1615 45.4061 70.1414 45.3909C70.1278 45.3778 70.1174 45.3614 70.1112 45.3432C70.105 45.3249 70.1032 45.3053 70.106 45.2862C70.1265 45.2145 70.1731 45.2048 70.1769 45.2183Z" fill="#263238"/>
<path d="M70.7511 45.3443C70.7679 45.3657 70.7324 45.4219 70.6728 45.4684C70.6131 45.515 70.5534 45.5344 70.5366 45.5111C70.5199 45.4878 70.5553 45.4335 70.615 45.387C70.6746 45.3405 70.7362 45.3211 70.7511 45.3443Z" fill="#263238"/>
<path d="M70.9392 45.5378C70.9504 45.5629 70.9243 45.6014 70.8814 45.6245C70.8385 45.6476 70.79 45.6456 70.7788 45.6245C70.7676 45.6033 70.7919 45.5609 70.8366 45.5378C70.8814 45.5147 70.928 45.5147 70.9392 45.5378Z" fill="#263238"/>
<path d="M71.2043 45.8465C71.1763 45.8465 71.1502 45.8097 71.1409 45.7554C71.1315 45.7011 71.1502 45.6545 71.1763 45.6506C71.2024 45.6468 71.2304 45.6875 71.2378 45.7418C71.2453 45.7961 71.2304 45.8426 71.2043 45.8465Z" fill="#263238"/>
<path d="M71.6311 45.8406C71.6251 45.8655 71.6251 45.8914 71.6311 45.9163C71.6423 45.955 71.6665 45.9822 71.7075 45.957C71.7486 45.9318 71.7374 45.8949 71.7075 45.8678C71.6777 45.8406 71.6479 45.8484 71.6404 45.8368C71.633 45.8251 71.6628 45.7825 71.7336 45.8019C71.7543 45.8078 71.7732 45.8191 71.7885 45.8347C71.8038 45.8503 71.8151 45.8697 71.8213 45.8911C71.8291 45.9276 71.8227 45.9658 71.8035 45.9974C71.7842 46.029 71.7538 46.0514 71.7187 46.0598C71.6987 46.0647 71.6779 46.0649 71.6579 46.0602C71.6378 46.0555 71.6191 46.046 71.6031 46.0326C71.5874 46.0176 71.5756 45.9987 71.5687 45.9777C71.5619 45.9567 71.5602 45.9342 71.564 45.9124C71.5733 45.8368 71.6274 45.8193 71.6311 45.8406Z" fill="#263238"/>
<path d="M72.1383 46.0439C72.157 46.0653 72.129 46.1196 72.0768 46.1661C72.0246 46.2126 71.9686 46.234 71.9518 46.2126C71.9351 46.1913 71.9612 46.137 72.0134 46.0905C72.0656 46.0439 72.1215 46.0226 72.1383 46.0439Z" fill="#263238"/>
<path d="M72.4742 46.2513C72.4928 46.2707 72.463 46.3308 72.394 46.3637C72.325 46.3967 72.2597 46.3792 72.2579 46.3502C72.256 46.3211 72.3008 46.2959 72.353 46.2707C72.4052 46.2454 72.4537 46.2299 72.4742 46.2513Z" fill="#263238"/>
<path d="M72.7276 46.6299C72.7015 46.6396 72.668 46.6086 72.6531 46.5621C72.6381 46.5155 72.6531 46.4709 72.6717 46.4632C72.6903 46.4554 72.7314 46.4845 72.7463 46.531C72.7612 46.5776 72.7519 46.6222 72.7276 46.6299Z" fill="#263238"/>
<path d="M73.0148 46.4515C73.0036 46.4515 73.026 46.3933 73.0968 46.3972C73.1222 46.3986 73.1463 46.4087 73.1656 46.4259C73.1849 46.443 73.1982 46.4663 73.2035 46.4921C73.2088 46.5179 73.2058 46.5448 73.1949 46.5686C73.1841 46.5925 73.166 46.6119 73.1435 46.624C73.1193 46.6409 73.0901 46.6481 73.0613 46.6442C73.0324 46.6403 73.0059 46.6255 72.9868 46.6027C72.974 46.5844 72.9663 46.5627 72.9647 46.5401C72.963 46.5175 72.9675 46.4949 72.9775 46.4747C73.0129 46.4088 73.0726 46.4224 73.067 46.4359C73.0537 46.4547 73.0453 46.4768 73.0428 46.4999C73.0428 46.5348 73.0577 46.5581 73.0931 46.5368C73.1285 46.5154 73.1155 46.4883 73.0819 46.467C73.0484 46.4456 73.026 46.4612 73.0148 46.4515Z" fill="#263238"/>
<path d="M73.2832 46.1797C73.2608 46.1952 73.2217 46.1797 73.1956 46.139C73.1695 46.0983 73.1676 46.0556 73.1956 46.0401C73.2235 46.0246 73.2571 46.0401 73.2832 46.0808C73.3093 46.1215 73.3056 46.1642 73.2832 46.1797Z" fill="#263238"/>
<path d="M73.4156 45.9561C73.397 45.9754 73.3578 45.9677 73.328 45.9369C73.2981 45.9061 73.2888 45.8657 73.3075 45.8464C73.3261 45.8272 73.3671 45.8349 73.397 45.8657C73.4268 45.8965 73.4343 45.9369 73.4156 45.9561Z" fill="#263238"/>
<path d="M73.561 45.5301C73.548 45.5301 73.5759 45.4777 73.6338 45.499C73.6509 45.5054 73.6659 45.5169 73.6768 45.5321C73.6877 45.5473 73.6942 45.5654 73.6953 45.5844C73.6929 45.6144 73.6792 45.6422 73.6572 45.6618C73.6352 45.6814 73.6067 45.6912 73.5778 45.6891C73.561 45.6882 73.5446 45.6832 73.53 45.6744C73.5154 45.6656 73.503 45.6534 73.4939 45.6387C73.4857 45.6236 73.4814 45.6065 73.4814 45.5892C73.4814 45.5719 73.4857 45.5549 73.4939 45.5398C73.5163 45.4893 73.5573 45.4874 73.561 45.499C73.563 45.5184 73.563 45.5379 73.561 45.5572C73.5612 45.5627 73.5624 45.5681 73.5647 45.5731C73.5669 45.5782 73.5701 45.5826 73.5741 45.5863H73.6114V45.565C73.6114 45.565 73.5759 45.5398 73.561 45.5301Z" fill="#263238"/>
<path d="M73.8593 45.8457C73.8457 45.8397 73.8347 45.8287 73.8285 45.8148C73.8223 45.8009 73.8213 45.7852 73.8257 45.7706C73.8264 45.7633 73.8285 45.7561 73.8319 45.7496C73.8353 45.7431 73.8399 45.7374 73.8454 45.7327C73.851 45.7281 73.8574 45.7246 73.8642 45.7225C73.8711 45.7204 73.8783 45.7197 73.8854 45.7205C73.8989 45.7261 73.9098 45.7368 73.916 45.7503C73.9222 45.7639 73.9233 45.7794 73.9189 45.7937C73.9167 45.8083 73.9094 45.8216 73.8985 45.8312C73.8875 45.8407 73.8736 45.8459 73.8593 45.8457Z" fill="#263238"/>
<path d="M73.9954 46.0136C73.9852 46.0028 73.9778 45.9895 73.9739 45.9749C73.9699 45.9603 73.9697 45.9449 73.9731 45.9302C73.9731 45.9147 73.9778 45.8997 73.9865 45.8871C73.9952 45.8746 74.0074 45.8652 74.0215 45.8604C74.0476 45.8604 74.0793 45.8933 74.07 45.9476C74.0607 46.0019 74.0159 46.031 73.9954 46.0136Z" fill="#263238"/>
<path d="M74.1838 46.238C74.1738 46.2496 74.1607 46.2579 74.1461 46.262C74.1316 46.2661 74.1162 46.2658 74.1018 46.2611C74.0867 46.2609 74.0721 46.2558 74.06 46.2465C74.0479 46.2371 74.039 46.224 74.0347 46.2091C74.0347 46.1822 74.0682 46.1514 74.1204 46.161C74.1727 46.1706 74.1969 46.2072 74.1838 46.238Z" fill="#263238"/>
<path d="M74.3368 46.4285C74.3275 46.4188 74.3517 46.38 74.4095 46.3897C74.4273 46.3937 74.444 46.4021 74.4579 46.4143C74.4719 46.4265 74.4828 46.442 74.4897 46.4595C74.4978 46.4891 74.4943 46.5208 74.4799 46.5477C74.4656 46.5746 74.4416 46.5945 74.4133 46.603C74.3941 46.6086 74.3738 46.6089 74.3545 46.6038C74.3352 46.5987 74.3175 46.5884 74.3033 46.574C74.2924 46.5577 74.2866 46.5384 74.2866 46.5187C74.2866 46.4989 74.2924 46.4796 74.3033 46.4634C74.3331 46.4052 74.3853 46.4208 74.3797 46.4343C74.3705 46.4501 74.3659 46.4683 74.3666 46.4867C74.3666 46.5119 74.3666 46.5119 74.3778 46.5119H74.3965C74.4151 46.5119 74.4095 46.5003 74.4114 46.4944C74.4095 46.4829 74.4035 46.4725 74.3946 46.4654C74.3666 46.4401 74.3443 46.4401 74.3368 46.4285Z" fill="#263238"/>
<path d="M74.5754 46.8117C74.5613 46.8076 74.5493 46.7982 74.5417 46.7853C74.5341 46.7725 74.5315 46.7571 74.5344 46.7424C74.5341 46.735 74.5353 46.7276 74.5379 46.7207C74.5406 46.7138 74.5445 46.7075 74.5496 46.7023C74.5547 46.6971 74.5608 46.693 74.5674 46.6903C74.5741 46.6875 74.5813 46.6863 74.5884 46.6866C74.5954 46.6879 74.6021 46.6907 74.608 46.6948C74.6139 46.6988 74.6191 46.704 74.623 46.7101C74.627 46.7162 74.6298 46.723 74.6312 46.7302C74.6327 46.7374 74.6327 46.7448 74.6313 46.752C74.6309 46.7674 74.6249 46.782 74.6146 46.793C74.6042 46.8041 74.5902 46.8107 74.5754 46.8117Z" fill="#263238"/>
<path d="M74.9369 46.6118C74.9369 46.6388 74.8847 46.6523 74.8325 46.6388C74.7803 46.6253 74.743 46.5945 74.7486 46.5675C74.7542 46.5406 74.8027 46.529 74.8549 46.5406C74.9071 46.5521 74.9425 46.5945 74.9369 46.6118Z" fill="#263238"/>
<path d="M75.0731 46.5445C75.0581 46.5426 75.0443 46.535 75.0344 46.5232C75.0244 46.5114 75.0189 46.4962 75.019 46.4805C75.019 46.4417 75.034 46.4068 75.0619 46.4049C75.0899 46.4029 75.1123 46.432 75.116 46.4708C75.1197 46.5096 75.1011 46.5426 75.0731 46.5445Z" fill="#263238"/>
<path d="M75.3268 46.3344C75.3007 46.3344 75.2783 46.3036 75.2783 46.2651C75.2783 46.2266 75.3007 46.1958 75.3268 46.1958C75.3529 46.1958 75.3753 46.2266 75.3753 46.2651C75.3753 46.3036 75.3548 46.3344 75.3268 46.3344Z" fill="#263238"/>
<path d="M75.5227 46.0499C75.5227 46.0402 75.5562 46.0015 75.6178 46.0402C75.6358 46.0518 75.6503 46.0686 75.6592 46.0886C75.6682 46.1086 75.6713 46.1309 75.6681 46.1527C75.6631 46.182 75.6476 46.2083 75.6248 46.2262C75.602 46.2442 75.5735 46.2526 75.5451 46.2497C75.5195 46.2519 75.494 46.2447 75.4731 46.2292C75.4522 46.2137 75.4373 46.191 75.431 46.1651C75.4247 46.1392 75.4275 46.1119 75.4388 46.088C75.4502 46.064 75.4693 46.045 75.4928 46.0344C75.5562 46.0015 75.5954 46.0461 75.5842 46.0558C75.573 46.0655 75.5506 46.0558 75.532 46.0926C75.5272 46.098 75.5235 46.1045 75.5213 46.1115C75.519 46.1185 75.5182 46.126 75.5189 46.1333C75.5268 46.142 75.5374 46.1475 75.5488 46.1488C75.5674 46.1488 75.5768 46.1488 75.5805 46.1353C75.5823 46.1218 75.5823 46.108 75.5805 46.0945C75.5805 46.081 75.5283 46.0616 75.5227 46.0499Z" fill="#263238"/>
<path d="M76.0282 45.8863C76.0077 45.9075 75.9722 45.9017 75.9368 45.8978C75.9014 45.894 75.8641 45.8824 75.8529 45.8574C75.8417 45.8324 75.8827 45.7862 75.9517 45.7977C76.0207 45.8093 76.0468 45.8689 76.0282 45.8863Z" fill="#263238"/>
<path d="M76.2832 45.7468C76.2702 45.7718 76.218 45.7699 76.162 45.7602C76.1061 45.7506 76.0576 45.7333 76.0539 45.7044C76.0502 45.6755 76.108 45.6467 76.1788 45.6601C76.2497 45.6736 76.2963 45.7237 76.2832 45.7468Z" fill="#263238"/>
<path d="M76.4288 45.6253C76.4027 45.6253 76.384 45.5885 76.3859 45.5497C76.3877 45.5109 76.4138 45.4818 76.4418 45.4857C76.4698 45.4896 76.4866 45.5206 76.4828 45.5594C76.483 45.5753 76.4776 45.5908 76.4677 45.6029C76.4577 45.615 76.4439 45.623 76.4288 45.6253Z" fill="#263238"/>
<path d="M76.649 45.2666C76.6396 45.2666 76.6676 45.2143 76.7347 45.2278C76.7554 45.2334 76.7741 45.2452 76.7884 45.2617C76.8027 45.2783 76.8119 45.2989 76.8149 45.3209C76.8185 45.3492 76.8129 45.3779 76.7991 45.4025C76.7853 45.427 76.7639 45.4461 76.7385 45.4567C76.7116 45.4654 76.6826 45.4639 76.6567 45.4525C76.6308 45.4412 76.6095 45.4207 76.5967 45.3946C76.5859 45.3738 76.5825 45.3497 76.5873 45.3265C76.5921 45.3034 76.6047 45.2828 76.6229 45.2686C76.6825 45.224 76.7254 45.2686 76.7161 45.2686C76.7068 45.2686 76.6844 45.286 76.6713 45.3132C76.6583 45.3403 76.6713 45.3364 76.6713 45.3423C76.675 45.3467 76.6796 45.3503 76.6847 45.3526C76.6899 45.355 76.6955 45.3561 76.7012 45.3558C76.7066 45.3521 76.7112 45.3473 76.7148 45.3416C76.7183 45.3359 76.7207 45.3295 76.7217 45.3229C76.7222 45.3165 76.721 45.3101 76.7184 45.3043C76.7158 45.2985 76.7118 45.2936 76.7068 45.2899C76.6862 45.2744 76.6564 45.2783 76.649 45.2666Z" fill="#263238"/>
<path d="M76.9678 45.2569C76.9536 45.2505 76.9421 45.2388 76.9356 45.2242C76.929 45.2095 76.9279 45.1929 76.9324 45.1774C76.9324 45.1692 76.934 45.161 76.9371 45.1535C76.9403 45.1459 76.9449 45.1391 76.9506 45.1335C76.9564 45.1278 76.9632 45.1235 76.9707 45.1207C76.9781 45.1179 76.986 45.1168 76.9939 45.1173C77.02 45.1173 77.035 45.158 77.0275 45.1968C77.02 45.2356 76.9939 45.2627 76.9678 45.2569Z" fill="#263238"/>
<path d="M77.2382 45.0193C77.2242 45.0152 77.2121 45.0058 77.2045 44.993C77.1969 44.9801 77.1943 44.9648 77.1972 44.95C77.1961 44.9433 77.1964 44.9364 77.198 44.9298C77.1997 44.9232 77.2026 44.917 77.2066 44.9116C77.2106 44.9062 77.2156 44.9017 77.2214 44.8983C77.2272 44.895 77.2335 44.8929 77.2401 44.8922C77.2467 44.8912 77.2535 44.8914 77.26 44.8931C77.2665 44.8947 77.2726 44.8977 77.278 44.9018C77.2834 44.906 77.2879 44.9112 77.2913 44.9171C77.2947 44.9231 77.297 44.9297 77.2979 44.9365C77.2996 44.9448 77.2996 44.9533 77.2979 44.9615C77.2969 44.9772 77.2902 44.9919 77.2791 45.0026C77.268 45.0134 77.2534 45.0193 77.2382 45.0193Z" fill="#263238"/>
<path d="M77.6186 44.7906C77.6037 44.8138 77.5571 44.8099 77.5086 44.7906C77.4601 44.7714 77.4172 44.7618 77.4135 44.7329C77.4098 44.704 77.4639 44.6771 77.531 44.6925C77.5981 44.7079 77.6335 44.7675 77.6186 44.7906Z" fill="#263238"/>
<path d="M77.801 44.6548C77.7768 44.6664 77.7395 44.6298 77.7544 44.5797C77.7693 44.5297 77.8178 44.5201 77.8327 44.5432C77.839 44.5526 77.8434 44.5633 77.8456 44.5745C77.8478 44.5858 77.8479 44.5974 77.8458 44.6086C77.8419 44.6192 77.836 44.6287 77.8282 44.6367C77.8205 44.6447 77.8112 44.6509 77.801 44.6548Z" fill="#263238"/>
<path d="M78.0212 44.4313C78.0071 44.4272 77.9951 44.4178 77.9875 44.405C77.9799 44.3921 77.9773 44.3768 77.9802 44.362C77.9802 44.3545 77.9816 44.3471 77.9844 44.3402C77.9873 44.3333 77.9914 44.327 77.9966 44.3218C78.0019 44.3166 78.008 44.3126 78.0148 44.3099C78.0216 44.3072 78.0288 44.3059 78.0361 44.3062C78.05 44.3098 78.062 44.3189 78.0696 44.3314C78.0773 44.3439 78.0799 44.359 78.0771 44.3736C78.0762 44.3886 78.0701 44.4027 78.0597 44.4134C78.0494 44.424 78.0357 44.4304 78.0212 44.4313Z" fill="#263238"/>
<path d="M75.3327 34.1316L74.0964 35.4251L77.091 38.4871C77.091 38.4871 77.7007 36.6409 78.1259 35.0159C78.4261 33.8679 75.3327 34.1316 75.3327 34.1316Z" fill="#FF725E"/>
<path d="M74.8494 35.5416C74.8233 35.5416 74.7954 35.4853 74.7879 35.4116C74.7805 35.338 74.7972 35.274 74.8233 35.272C74.8494 35.2701 74.8774 35.3263 74.8849 35.402C74.8923 35.4776 74.8756 35.5416 74.8494 35.5416Z" fill="#263238"/>
<path d="M75.1347 35.6018C75.1347 35.6288 75.0881 35.6519 75.0303 35.6519C74.9725 35.6519 74.9277 35.6288 74.9277 35.6018C74.9277 35.5749 74.9744 35.5518 75.0303 35.5518C75.0862 35.5518 75.1347 35.5729 75.1347 35.6018Z" fill="#263238"/>
<path d="M75.2133 36.0319C75.1891 36.0164 75.191 35.9718 75.191 35.9233C75.191 35.8748 75.191 35.8321 75.2133 35.8166C75.2357 35.8011 75.2879 35.8438 75.2879 35.9233C75.2879 36.0028 75.2394 36.0493 75.2133 36.0319Z" fill="#263238"/>
<path d="M75.4593 36.0745C75.4481 36.0745 75.491 36.0124 75.5712 36.0396C75.5955 36.0477 75.6173 36.0624 75.6343 36.0821C75.6514 36.1019 75.663 36.126 75.6681 36.1521C75.6719 36.1872 75.6636 36.2226 75.6448 36.2521C75.626 36.2816 75.5979 36.3033 75.5653 36.3135C75.5327 36.3236 75.4977 36.3216 75.4664 36.3077C75.4351 36.2938 75.4095 36.2689 75.394 36.2374C75.3854 36.2114 75.3844 36.1834 75.391 36.1569C75.3977 36.1303 75.4117 36.1064 75.4313 36.0881C75.4429 36.0761 75.457 36.067 75.4726 36.0617C75.4881 36.0563 75.5046 36.0547 75.5208 36.057C75.5451 36.057 75.5525 36.0764 75.5488 36.0803C75.5218 36.0903 75.4989 36.1095 75.4835 36.1346C75.4593 36.1773 75.4723 36.2335 75.5376 36.216C75.6029 36.1986 75.5861 36.1365 75.5376 36.1055C75.4891 36.0745 75.4667 36.0861 75.4593 36.0745Z" fill="#263238"/>
<path d="M75.782 36.5977C75.7578 36.5977 75.7485 36.5454 75.7615 36.5008C75.7746 36.4562 75.8081 36.4271 75.8342 36.4348C75.8604 36.4426 75.8697 36.4872 75.8548 36.5318C75.8398 36.5764 75.8081 36.6055 75.782 36.5977Z" fill="#263238"/>
<path d="M76.0614 36.5422C76.0876 36.5422 76.0969 36.6236 76.082 36.7128C76.067 36.802 76.0335 36.8718 76.0074 36.866C75.9813 36.8602 75.9719 36.7846 75.9869 36.6954C76.0018 36.6061 76.0353 36.5383 76.0614 36.5422Z" fill="#263238"/>
<path d="M76.358 36.8987C76.358 36.9257 76.3114 36.9546 76.2462 36.9623C76.1809 36.97 76.1287 36.9526 76.125 36.9257C76.1212 36.8987 76.1716 36.8699 76.2368 36.8622C76.3021 36.8545 76.358 36.866 76.358 36.8987Z" fill="#263238"/>
<path d="M76.479 37.0465C76.479 37.0349 76.5181 37.0039 76.589 37.0349C76.6105 37.0444 76.6297 37.059 76.6449 37.0775C76.6601 37.096 76.671 37.1179 76.6766 37.1415C76.6829 37.1739 76.6789 37.2076 76.6651 37.2373C76.6513 37.2671 76.6285 37.2914 76.6002 37.3064C76.5712 37.3243 76.5368 37.3301 76.5039 37.3225C76.4709 37.315 76.442 37.2946 76.423 37.2657C76.4109 37.2413 76.4069 37.2134 76.4116 37.1864C76.4163 37.1593 76.4295 37.1347 76.4491 37.1163C76.4611 37.1033 76.4765 37.0941 76.4934 37.09C76.5103 37.0859 76.5279 37.0869 76.5442 37.0931C76.5666 37.1028 76.5703 37.1163 76.5666 37.1202C76.5536 37.1218 76.5413 37.127 76.5308 37.1352C76.5203 37.1433 76.5121 37.1542 76.5069 37.1667C76.4864 37.2133 76.507 37.2443 76.561 37.221C76.6151 37.1978 76.5965 37.1357 76.561 37.1008C76.5256 37.0659 76.4808 37.062 76.479 37.0465Z" fill="#263238"/>
<path d="M76.7924 37.731C76.7663 37.731 76.7439 37.6574 76.7439 37.5682C76.7439 37.479 76.7663 37.4072 76.7924 37.4072C76.8185 37.4072 76.8409 37.479 76.8409 37.5682C76.8409 37.6574 76.8203 37.731 76.7924 37.731Z" fill="#263238"/>
<path d="M76.3413 32.8047C76.2707 32.9559 76.1803 33.0962 76.0728 33.2216C75.8863 33.466 75.629 33.8034 75.3269 34.1466C75.0249 34.4898 74.7489 34.8137 74.5456 35.0386C74.4415 35.166 74.326 35.2829 74.2007 35.3877C74.2853 35.2454 74.3834 35.1122 74.4934 34.9902C74.6799 34.7555 74.9559 34.4336 75.2542 34.0807L76.0187 33.1751C76.1178 33.0439 76.2256 32.9202 76.3413 32.8047Z" fill="#263238"/>
<path d="M78.4351 44.4093C78.4351 44.4362 78.3791 44.4458 78.3232 44.4324C78.2673 44.4189 78.2281 44.3842 78.2337 44.3573C78.2393 44.3303 78.2915 44.3207 78.3456 44.3342C78.3996 44.3476 78.4407 44.3823 78.4351 44.4093Z" fill="#263238"/>
<path d="M78.5768 44.1725C78.5768 44.1628 78.588 44.1318 78.6421 44.1279C78.6598 44.1281 78.677 44.1337 78.6916 44.1441C78.7062 44.1544 78.7175 44.1691 78.7242 44.1861C78.7295 44.1967 78.7328 44.2084 78.7338 44.2204C78.7347 44.2324 78.7333 44.2445 78.7296 44.2559C78.726 44.2673 78.7201 44.2778 78.7125 44.2868C78.7048 44.2958 78.6955 44.3031 78.685 44.3083H78.6664C78.5731 44.3335 78.4929 44.2385 78.534 44.1648C78.5399 44.1537 78.549 44.1447 78.56 44.1392C78.571 44.1336 78.5834 44.1317 78.5955 44.1337C78.5983 44.1336 78.601 44.1341 78.6035 44.1353C78.606 44.1366 78.6082 44.1384 78.6099 44.1407C78.6116 44.143 78.6126 44.1457 78.6131 44.1485C78.6135 44.1514 78.6132 44.1543 78.6123 44.157C78.6065 44.1614 78.6019 44.1673 78.5989 44.1741C78.596 44.1809 78.5948 44.1884 78.5955 44.1958C78.5955 44.1958 78.6235 44.2171 78.6402 44.2113C78.6409 44.2072 78.6401 44.203 78.6381 44.1995C78.636 44.1959 78.6328 44.1932 78.6291 44.1919C78.6085 44.1861 78.5824 44.1861 78.5768 44.1725Z" fill="#263238"/>
<path d="M62.707 37.2985C62.6008 36.932 61.2638 36.1796 61.4652 35.976C61.7263 35.7084 62.8264 36.8254 62.9252 36.9126C63.024 36.9999 63.1452 36.8506 63.052 36.7769C62.9177 36.6702 61.5267 35.5222 61.7822 35.2585C61.9239 35.1111 62.1551 35.4078 62.1551 35.4078C62.1551 35.4078 63.382 36.5849 63.4995 36.455C63.617 36.3251 62.9177 35.6075 62.666 35.3845C62.4143 35.1615 62.4162 34.9463 62.5989 34.9114C62.722 34.8862 63.5088 35.5532 63.7512 35.7821C63.9936 36.0109 64.6556 36.647 64.5679 36.0516V36.0245C64.4672 35.4427 64.5679 34.956 64.6985 34.8396C64.7259 34.811 64.7613 34.7921 64.7996 34.7854C64.8379 34.7787 64.8773 34.7846 64.9122 34.8024C64.9471 34.8201 64.9759 34.8487 64.9944 34.8843C65.0129 34.9198 65.0202 34.9605 65.0154 35.0006C65.021 35.0294 65.021 35.059 65.0154 35.0878V35.1305C65.0098 35.3337 65.0229 35.5369 65.0546 35.7375C65.0803 35.9177 65.1351 36.0921 65.2168 36.2533C65.3119 36.4472 65.4033 36.5946 65.4779 36.7245C66.371 37.2365 68.9423 38.5881 71.5174 38.7937C71.9835 38.8305 74.3423 35.658 74.3423 35.658L76.6563 38.0219C76.343 38.5784 76.233 38.7064 74.6611 40.9423C72.0973 44.5899 64.0328 38.5493 64.0328 38.5493L63.9582 38.5105C63.3455 38.1996 62.7503 37.8526 62.1756 37.4711C61.482 36.965 61.523 36.8991 61.592 36.8215C61.7486 36.6179 62.8152 37.6747 62.707 37.2985Z" fill="#FFBE9D"/>
</svg>
