<svg width="34" height="21" viewBox="0 0 34 21" fill="none" xmlns="http://www.w3.org/2000/svg">
<path d="M18.7 12.3004H17.85V7.62539C17.85 7.39058 17.6598 7.20039 17.425 7.20039H16.7036C16.4518 7.20039 16.2058 7.27477 15.9965 7.41448L15.1821 7.95742C15.1356 7.98835 15.0957 8.02812 15.0647 8.07447C15.0336 8.12082 15.012 8.17284 15.001 8.22756C14.99 8.28227 14.99 8.33861 15.0008 8.39335C15.0117 8.44809 15.0332 8.50016 15.0641 8.54658L15.5359 9.25367C15.5668 9.30012 15.6066 9.34002 15.6529 9.37108C15.6993 9.40215 15.7513 9.42378 15.806 9.43473C15.8607 9.44568 15.9171 9.44575 15.9718 9.43492C16.0265 9.42408 16.0786 9.40257 16.125 9.37161L16.15 9.35514V12.3004H15.3C15.0652 12.3004 14.875 12.4906 14.875 12.7254V13.5754C14.875 13.8102 15.0652 14.0004 15.3 14.0004H18.7C18.9348 14.0004 19.125 13.8102 19.125 13.5754V12.7254C19.125 12.4906 18.9348 12.3004 18.7 12.3004ZM32.3 0.400391H1.7C0.761281 0.400391 0 1.16167 0 2.10039V19.1004C0 20.0391 0.761281 20.8004 1.7 20.8004H32.3C33.2387 20.8004 34 20.0391 34 19.1004V2.10039C34 1.16167 33.2387 0.400391 32.3 0.400391ZM2.55 18.2504V14.8504C4.42797 14.8504 5.95 16.3724 5.95 18.2504H2.55ZM2.55 6.35039V2.95039H5.95C5.95 4.82836 4.42797 6.35039 2.55 6.35039ZM17 16.5504C14.1833 16.5504 11.9 13.8862 11.9 10.6004C11.9 7.31408 14.1833 4.65039 17 4.65039C19.8167 4.65039 22.1 7.31408 22.1 10.6004C22.1 13.8872 19.8156 16.5504 17 16.5504ZM31.45 18.2504H28.05C28.05 16.3724 29.572 14.8504 31.45 14.8504V18.2504ZM31.45 6.35039C29.572 6.35039 28.05 4.82836 28.05 2.95039H31.45V6.35039Z" fill="#EFF2F5"/>
</svg>
