<svg width="32" height="32" viewBox="0 0 32 32" fill="none" xmlns="http://www.w3.org/2000/svg">
<path d="M16.5001 14H20.0001V12H18.0001V11H16.0001V12.05C15.3925 12.1734 14.8524 12.5181 14.4847 13.0173C14.117 13.5164 13.9479 14.1344 14.0102 14.7512C14.0725 15.3681 14.3618 15.9398 14.8219 16.3553C15.282 16.7709 15.8801 17.0006 16.5001 17H17.5001C17.6327 17 17.7599 17.0527 17.8536 17.1464C17.9474 17.2402 18.0001 17.3674 18.0001 17.5C18.0001 17.6326 17.9474 17.7598 17.8536 17.8536C17.7599 17.9473 17.6327 18 17.5001 18H14.0001V20H16.0001V21H18.0001V19.95C18.6077 19.8266 19.1477 19.4819 19.5154 18.9827C19.8831 18.4836 20.0522 17.8656 19.9899 17.2488C19.9276 16.6319 19.6383 16.0602 19.1782 15.6447C18.7181 15.2291 18.1201 14.9994 17.5001 15H16.5001C16.3675 15 16.2403 14.9473 16.1465 14.8536C16.0528 14.7598 16.0001 14.6326 16.0001 14.5C16.0001 14.3674 16.0528 14.2402 16.1465 14.1464C16.2403 14.0527 16.3675 14 16.5001 14Z" fill="#EFF2F5"/>
<path d="M29 13H26.98C26.9513 12.2099 26.7607 11.4342 26.4201 10.7207C26.0796 10.0072 25.5962 9.3712 25 8.852V5C25 4.81429 24.9483 4.63225 24.8507 4.47427C24.753 4.31629 24.6133 4.18863 24.4472 4.10557C24.2811 4.02252 24.0952 3.98736 23.9102 4.00404C23.7252 4.02072 23.5486 4.08857 23.4 4.2L19.667 7H15C9.49 7 5.537 10.241 5.052 15H5C4.73478 15 4.48043 14.8946 4.29289 14.7071C4.10536 14.5196 4 14.2652 4 14V12H2V14C2.00079 14.7954 2.31712 15.558 2.87956 16.1204C3.44199 16.6829 4.20459 16.9992 5 17H5.07C5.21502 18.3113 5.64118 19.5758 6.3194 20.7074C6.99762 21.839 7.91195 22.8109 9 23.557V27C9 27.2652 9.10536 27.5196 9.29289 27.7071C9.48043 27.8946 9.73478 28 10 28H14C14.2652 28 14.5196 27.8946 14.7071 27.7071C14.8946 27.5196 15 27.2652 15 27V25H18V27C18 27.2652 18.1054 27.5196 18.2929 27.7071C18.4804 27.8946 18.7348 28 19 28H23C23.2652 28 23.5196 27.8946 23.7071 27.7071C23.8946 27.5196 24 27.2652 24 27V23.637C24.7223 23.2945 25.3539 22.7869 25.8437 22.155C26.3334 21.5232 26.6675 20.7849 26.819 20H29C29.2652 20 29.5196 19.8946 29.7071 19.7071C29.8946 19.5196 30 19.2652 30 19V14C30 13.7348 29.8946 13.4804 29.7071 13.2929C29.5196 13.1054 29.2652 13 29 13ZM28 18H25.124C24.819 20.753 24.3 21.485 22 22.315V26H20V23H13V26H11V22.378C9.7959 21.8051 8.78007 20.9009 8.07161 19.7712C7.36314 18.6416 6.99141 17.3334 7 16C7 11.165 11.018 9 15 9H20.333L23 7V9.776C25.418 11.636 24.913 12.962 25.018 15H28V18Z" fill="#EFF2F5"/>
</svg>
