<svg width="16" height="16" viewBox="0 0 16 16" fill="none" xmlns="http://www.w3.org/2000/svg">
<path d="M4.90625 7.5575C4.83749 8.03788 4.88155 8.52768 5.03495 8.98808C5.18835 9.44849 5.44686 9.86683 5.79001 10.21C6.13316 10.5531 6.55151 10.8116 7.01191 10.965C7.47231 11.1184 7.96211 11.1625 8.4425 11.0937L4.905 7.5575H4.90625ZM11.0937 8.4425L7.5575 4.905C8.03788 4.83624 8.52768 4.8803 8.98808 5.0337C9.44849 5.1871 9.86683 5.44561 10.21 5.78876C10.5531 6.13191 10.8116 6.55026 10.965 7.01066C11.1184 7.47106 11.1625 7.96086 11.0937 8.44125V8.4425ZM15.0575 15.9425L0.0574951 0.942495L0.942495 0.0574951L15.9425 15.0575L15.0575 15.9425Z" fill="#EFF2F5"/>
</svg>
