<svg width="16" height="14" viewBox="0 0 16 14" fill="none" xmlns="http://www.w3.org/2000/svg">
<path fill-rule="evenodd" clip-rule="evenodd" d="M13.1355 13.8249H11.8856C11.5573 13.8249 11.3238 13.6986 11.1849 13.4461L9.02904 9.8551H4.55651V13.2378C4.55651 13.6292 4.36081 13.8249 3.96942 13.8249H1.86729V12.8401L3.04145 12.7075V9.8551H0V8.8854H3.04145V4.52188H0V3.55219H3.04145V1.13629L1.86729 0.984785V0H4.29137C4.59438 0 4.82796 0.126254 4.99209 0.378763L6.89397 3.55219H11.6204V0.587083C11.6204 0.195694 11.8098 0 12.1886 0H14.3097V0.984785L13.1355 1.13629V3.55219H16V4.52188H13.1355V8.8854H16V9.8551H13.1355V13.8249ZM4.55651 8.8854H8.44688L5.82727 4.52188H4.55651V8.8854ZM10.6714 9.8551L11.6204 11.4387V9.8551H10.6714ZM11.6204 8.8854H10.0902L7.47512 4.52188H11.6204V8.8854ZM4.55651 2.40515L5.24512 3.55219H4.55651V2.40515Z" fill="#EFF2F5"/>
</svg>
